<svg width="129" height="128" viewBox="0 0 129 128" fill="none" xmlns="http://www.w3.org/2000/svg">
    <path
        d="M77.3372 116.937L64.8508 125.76L52.3684 116.932L64.8499 108.939L77.3372 116.937ZM91.6917 116.122H81.8049L99.1379 106.705L91.6917 116.122ZM47.9016 116.122H38.0149L30.5637 106.707L47.9016 116.122ZM53.8694 100.033L53.8684 100.129L53.9436 100.191L63.5208 107.94L50.9377 115.998L28.8987 104.024L43.8938 89.5884L54.0657 87.6167L53.8694 100.033ZM85.8059 89.5884L100.802 104.024L78.7678 115.998L66.1848 107.94L75.7629 100.191L75.8381 100.129L75.8372 100.033L75.6399 87.6167L85.8059 89.5884ZM73.7678 99.7964L64.8508 107.008L55.9329 99.7964L64.8508 97.6724L73.7678 99.7964ZM29.1829 68.8794L29.4104 76.938L29.4133 77.0229L29.4758 77.0806L41.9221 88.4595L42.384 88.8833L27.5442 103.164L27.0159 102.802L8.46313 90.1899L15.2034 78.4087L15.2151 78.3892L15.2209 78.3677L15.2415 78.3032L15.2493 78.2749L15.2502 78.2456L15.5325 49.2241L29.1829 68.8794ZM114.451 78.1812L114.452 78.1948L114.457 78.2593L114.46 78.3042L114.483 78.3433L121.238 90.1899L102.156 103.164L87.3225 88.8833L100.231 77.0806L100.293 77.0229L100.296 76.938L100.523 68.8843L114.173 49.2241L114.451 78.1812ZM78.6204 26.4458L84.8333 40.3667L74.7112 76.27L74.7053 76.2905L74.7043 76.313L74.0706 87.1382V87.1538L74.2502 98.3052L64.8967 96.0806L64.8508 96.0698L64.8049 96.0806L55.4553 98.3052L55.6311 87.1528V87.1382L54.9973 76.313L54.9963 76.2905L54.9905 76.27L44.8674 40.3667L51.0793 26.4458L64.8508 21.7925L78.6204 26.4458ZM53.0295 75.0649L40.6965 67.8735L40.6506 67.8462H30.3635L16.0774 47.2778L43.4866 41.1997L53.0295 75.0649ZM113.623 47.2778L99.343 67.8462H89.051L89.0051 67.8735L76.6711 75.0649L86.219 41.2046L113.623 47.2778ZM48.9836 25.6558V25.6567L49.5383 26.0688L46.5706 32.7271L18.3333 4.24268L18.0002 4.44092L25.1145 28.2456L15.6868 43.771L17.4573 2.37842L48.9836 25.6558ZM114.019 43.771L104.591 28.2456L111.706 4.4458L111.373 4.24756L83.135 32.728L80.1633 26.0747L112.248 2.37842L114.019 43.771Z"
        fill="url(#paint0_linear_457_547)" fill-opacity="0.4" stroke="url(#paint1_linear_457_547)" stroke-width="0.1" />
    <path
        d="M112.433 0.200195C112.698 0.200242 112.967 0.258431 113.212 0.378906L113.213 0.379883C113.809 0.666717 114.195 1.25824 114.222 1.91797L116.042 44.4639L116.162 48.54L116.442 77.6973V77.749L116.467 77.7949L123.06 89.3584C123.526 90.1749 123.284 91.2065 122.513 91.7314L103.389 104.737L103.365 104.754L103.346 104.777L93.1877 117.443C92.8654 117.846 92.3811 118.089 91.8645 118.111L78.3606 118.694L78.302 118.697L78.2542 118.731L65.8879 127.467C65.5719 127.688 65.2129 127.8 64.8508 127.8C64.5332 127.8 64.2151 127.714 63.9329 127.545L63.8147 127.468L51.4524 118.727L51.4045 118.692L51.3459 118.689L37.842 118.111C37.3208 118.089 36.8414 117.846 36.5188 117.443L26.3508 104.777L26.3323 104.754L26.3079 104.737L7.18872 91.7324V91.7314C6.41318 91.2069 6.17535 90.1714 6.64185 89.3594V89.3584L13.2336 77.835L13.26 77.7891V77.7373L13.5442 48.5801L13.6594 44.4883L15.4788 1.91797C15.504 1.30004 15.8491 0.740583 16.3801 0.436523L16.4885 0.379883C16.7401 0.258626 17.0042 0.200244 17.2737 0.200195C17.5959 0.200195 17.9183 0.286088 18.2043 0.458008L18.3245 0.537109L51.1506 24.2275L51.2336 24.2871L51.3313 24.2549L64.2766 19.8818L64.2776 19.8809C64.4603 19.8185 64.6577 19.7871 64.8508 19.7871C65.043 19.7871 65.236 19.8179 65.425 19.8809V19.8818L78.3704 24.2549L78.468 24.2871L78.551 24.2275L111.383 0.536133C111.691 0.312685 112.059 0.200195 112.433 0.200195ZM112.433 0.796875C112.191 0.796875 111.939 0.867322 111.732 1.01953L78.5647 24.9492L65.2336 20.4453V20.4443C65.1063 20.4019 64.9795 20.3848 64.8508 20.3848C64.7222 20.3848 64.5954 20.4019 64.468 20.4443V20.4453L51.1311 24.9492L17.9749 1.01953H17.9739C17.7633 0.86913 17.5171 0.796875 17.2737 0.796875C17.1419 0.796909 17.0064 0.816709 16.8762 0.863281L16.7542 0.916992C16.4032 1.08462 16.162 1.40789 16.095 1.7793L16.0764 1.94141L14.2571 44.502V44.5049L14.1418 48.5781V48.582L13.8528 77.9502L7.15747 89.6533V89.6543C6.84629 90.1991 7.00797 90.8867 7.52173 91.2393L7.52271 91.2402L26.7444 104.306L36.9846 117.07V117.069C37.2001 117.339 37.5227 117.5 37.8645 117.513V117.514L51.6047 118.104L64.1565 126.981L64.1594 126.983C64.3654 127.125 64.6089 127.203 64.8508 127.203C65.0923 127.203 65.3367 127.124 65.5393 126.981L78.0959 118.109L91.8362 117.513C92.1826 117.5 92.5049 117.339 92.7209 117.069L92.7219 117.07L102.956 104.306L122.174 91.2402L122.175 91.2393C122.688 90.8871 122.852 90.199 122.539 89.6582H122.538L115.843 77.9111L115.565 48.5625V48.5586L115.449 44.4893V44.4863L113.63 1.94141L113.629 1.93848C113.605 1.50353 113.349 1.10889 112.953 0.916992C112.784 0.832857 112.609 0.796918 112.433 0.796875Z"
        fill="url(#paint2_linear_457_547)" fill-opacity="0.55" stroke="url(#paint3_linear_457_547)" stroke-width="0.1" />
    <defs>
        <linearGradient id="paint0_linear_457_547" x1="9.36095" y1="3.08546" x2="113.366" y2="97.9289"
            gradientUnits="userSpaceOnUse">
            <stop offset="0.358553" stop-color="white" stop-opacity="0" />
            <stop offset="0.882296" stop-color="white" />
        </linearGradient>
        <linearGradient id="paint1_linear_457_547" x1="105.397" y1="109.468" x2="17.2352" y2="15.0621"
            gradientUnits="userSpaceOnUse">
            <stop offset="0.206666" stop-color="white" />
            <stop offset="0.716666" stop-color="white" stop-opacity="0" />
        </linearGradient>
        <linearGradient id="paint2_linear_457_547" x1="7.40676" y1="1.12593" x2="114.786" y2="99.3346"
            gradientUnits="userSpaceOnUse">
            <stop offset="0.358553" stop-color="white" stop-opacity="0" />
            <stop offset="0.882296" stop-color="white" />
        </linearGradient>
        <linearGradient id="paint3_linear_457_547" x1="106.824" y1="110.931" x2="15.8448" y2="13.2211"
            gradientUnits="userSpaceOnUse">
            <stop offset="0.206666" stop-color="white" />
            <stop offset="0.716666" stop-color="white" stop-opacity="0" />
        </linearGradient>
    </defs>
</svg>