<svg width="129" height="128" viewBox="0 0 129 128" fill="none" xmlns="http://www.w3.org/2000/svg">
    <mask id="path-1-inside-1_456_292" fill="white">
        <path
            d="M124.248 3.70909C122.895 1.42545 120.423 0 117.775 0H11.9282C9.28096 0 6.80823 1.42545 5.4555 3.72364C4.08823 6.06545 4.08823 8.96 5.44096 11.2582L7.47732 14.7782V76.5673C7.66641 84.1455 9.63005 90.9818 13.3391 96.9018C19.2446 106.313 28.0446 110.72 35.0264 114.225L35.2155 114.327C38.0955 115.782 40.4082 116.698 42.6337 117.585L42.8082 117.658C45.8773 118.88 48.7719 120.029 53.63 122.633C56.1755 124 58.6046 125.425 60.9464 126.909C62.1391 127.622 63.4773 128 64.8446 128C66.2555 128 67.6228 127.607 68.8591 126.836C71.0991 125.425 73.5282 124 76.0591 122.647C80.9173 120.044 83.8119 118.895 86.8955 117.658C89.15 116.756 91.4919 115.825 94.4737 114.342L94.7064 114.225C101.761 110.691 110.503 106.284 116.379 96.9164C120.088 91.0109 122.052 84.1455 122.241 76.4073V14.7782L124.277 11.2436C125.615 8.91636 125.601 6.02182 124.248 3.70909ZM121.761 9.78909L119.405 13.8909C119.405 13.8909 119.346 14.0509 119.346 14.1382V76.3927C119.172 83.5345 117.354 89.9055 113.921 95.36C108.466 104.058 100.423 108.087 93.3391 111.651L93.1791 111.738C90.3137 113.178 88.03 114.08 85.8337 114.953C82.8082 116.16 79.6955 117.396 74.6919 120.073C72.1028 121.469 69.6155 122.924 67.3173 124.378C66.5755 124.844 65.7319 125.091 64.8591 125.091C64.03 125.091 63.201 124.858 62.4591 124.422C60.1028 122.938 57.63 121.484 55.0264 120.087C50.0228 117.396 46.91 116.16 43.8991 114.967L43.7246 114.895C41.4555 113.993 39.3028 113.135 36.5391 111.738L36.321 111.622C29.6737 108.291 21.281 104.087 15.8119 95.3745C12.3791 89.9055 10.561 83.5636 10.3864 76.5236V14.1382C10.3864 14.0509 10.3573 13.9636 10.3282 13.9055L7.97187 9.80364C7.14278 8.39273 7.14278 6.61818 7.97187 5.19273C8.80096 3.78182 10.3282 2.90909 11.9428 2.90909H117.775C119.405 2.90909 120.917 3.78182 121.746 5.19273C122.576 6.60364 122.59 8.37818 121.761 9.80364V9.78909Z" />
        <path
            d="M64.8446 122.182C64.5246 122.182 64.2191 122.095 63.9428 121.92C61.4991 120.378 58.9537 118.909 56.3937 117.513C51.2446 114.749 48.0446 113.469 44.961 112.247C42.6919 111.345 40.5537 110.502 37.8337 109.135L37.7028 109.062C30.9391 105.673 23.2882 101.833 18.2555 93.8036C15.1137 88.8 13.441 82.9382 13.281 76.4218V14.1382C13.281 13.5418 13.121 12.96 12.83 12.4509L10.4591 8.34909C10.1537 7.82545 10.1537 7.18545 10.4591 6.66182C10.7646 6.13818 11.3173 5.81818 11.9282 5.81818H117.761C118.372 5.81818 118.925 6.13818 119.23 6.66182C119.535 7.18545 119.535 7.82545 119.23 8.34909L116.874 12.4509C116.583 12.9745 116.423 13.5564 116.423 14.1382V76.3927C116.263 82.9527 114.59 88.8145 111.448 93.8182C106.415 101.847 98.75 105.687 92.0009 109.076L91.87 109.149C89.15 110.516 87.0119 111.36 84.7428 112.262C81.6591 113.484 78.4591 114.764 73.31 117.527C70.75 118.909 68.2046 120.393 65.7609 121.935C65.4846 122.109 65.1791 122.196 64.8591 122.196L64.8446 122.182ZM14.8519 9.19273L15.7537 10.7636C16.3355 11.7818 16.6555 12.96 16.6555 14.1382V76.3927C16.801 82.2545 18.2991 87.5345 21.1064 92.0291C25.63 99.2582 32.8446 102.865 39.201 106.051L39.3319 106.124C41.9355 107.433 44.001 108.247 46.1973 109.12C49.3682 110.385 52.6555 111.68 57.9791 114.56C60.2919 115.811 62.6046 117.135 64.83 118.516C67.0555 117.149 69.3682 115.811 71.681 114.56C77.0046 111.695 80.2919 110.385 83.4628 109.12C85.6591 108.247 87.7246 107.418 90.3282 106.124L90.4591 106.051C96.8155 102.865 104.03 99.2582 108.554 92.0291C111.361 87.5345 112.859 82.2691 113.005 76.3491V14.1382C113.005 12.96 113.325 11.7964 113.906 10.7636L114.808 9.19273H14.8519Z" />
        <path
            d="M101.237 52.3927L99.5064 50.6036H99.1137C97.0191 49.1636 94.59 48.3636 92.0446 48.3055C90.7937 48.2327 89.4991 47.4036 88.6119 46.6909C87.6082 45.9055 86.9828 44.5673 86.9828 43.2145V25.3382C86.9828 21.2364 83.6373 17.8909 79.521 17.8909C75.9573 17.8909 72.961 20.4218 72.2337 23.7818C72.03 20.32 69.4991 17.5855 66.1391 17.0036C65.5137 13.5564 62.4882 10.9236 58.8228 10.8945H58.8082C54.7064 10.9091 51.3755 14.2545 51.3755 18.3564V24.0436C51.201 32.5673 46.0228 43.2873 40.2046 47.36C39.2882 47.9564 38.4737 48.2909 37.761 48.3055C29.2373 48.6109 24.7428 55.2436 24.6991 61.6436C24.6555 68.0291 29.0337 74.7346 37.5282 75.1709C38.5755 75.2145 39.7682 75.7236 41.0337 76.6982C42.0373 77.4691 42.6628 78.8073 42.6628 80.1745V98.1527C42.6628 102.255 46.0082 105.6 50.11 105.6C53.6591 105.6 56.641 103.113 57.3828 99.7964C57.6446 103.2 60.1464 105.891 63.4628 106.473C64.1028 109.949 67.1573 112.582 70.8082 112.582C74.9246 112.582 78.2555 109.251 78.2555 105.135V101.731C81.95 101.28 84.8009 98.1382 84.8009 94.3418V82.4145C84.8009 81.4255 85.1064 80.48 85.63 79.7818C87.8264 76.9309 90.0373 75.3018 91.87 75.1854C95.3464 75.1418 98.6191 73.7455 101.092 71.2582C103.608 68.7273 105.019 65.28 104.99 61.8036C105.048 58.3418 103.681 54.9236 101.237 52.3927ZM99.0264 69.2073C97.0628 71.1855 94.4591 72.2764 91.6955 72.2764C89.0191 72.3927 86.1682 74.3273 83.3319 78.0218C82.401 79.2145 81.8919 80.7709 81.8919 82.4145V94.3418C81.8919 96.8436 79.8555 98.88 77.3537 98.88C76.641 98.88 75.9719 98.72 75.3755 98.4291C75.3609 98.7055 75.3464 98.9673 75.3464 99.2436V105.135C75.3464 107.636 73.31 109.673 70.8082 109.673C68.7428 109.673 66.9973 108.291 66.4446 106.415C66.3137 106.007 66.2555 105.571 66.2555 105.135V104.305C66.2555 104.029 66.241 103.738 66.241 103.447C65.79 103.607 65.31 103.68 64.8155 103.68C64.2919 103.68 63.7973 103.593 63.3319 103.433C61.5428 102.851 60.2773 101.193 60.2628 99.2145C60.2337 95.5055 59.2882 90.8655 57.5719 86.24C56.7719 84.0436 55.7973 81.8764 54.6628 79.8109V98.1527C54.6628 100.655 52.6119 102.691 50.11 102.691C47.6082 102.691 45.5719 100.655 45.5719 98.1527V80.1745C45.5719 77.8764 44.5391 75.7091 42.7937 74.3855C41.0482 73.0473 39.3173 72.3345 37.6446 72.2618C31.0119 71.9127 27.5791 66.6618 27.6082 61.6582C27.6373 56.6545 31.1719 51.4473 37.8628 51.2145C39.0846 51.2 40.3937 50.72 41.8046 49.7891C48.4664 45.1345 54.0955 33.6 54.2846 24.1018V18.3564C54.2846 15.8545 56.321 13.8182 58.8082 13.8036H58.8228C60.8882 13.8182 62.6191 15.1855 63.1719 17.0618C63.3028 17.4691 63.361 17.9055 63.361 18.3564V20.0291C63.8119 19.8691 64.2919 19.7964 64.8009 19.7964C65.31 19.7964 65.8191 19.8836 66.27 20.0291C68.0737 20.6109 69.3391 22.2691 69.3537 24.2618C69.3537 27.1273 69.8337 30.1818 70.8228 33.6291C71.1864 34.88 71.6082 36.1164 72.0737 37.3382C72.9028 39.5345 73.8919 41.6582 74.9828 43.6218V25.3382C74.9828 22.8364 77.0191 20.8 79.521 20.8C82.0228 20.8 84.0737 22.8364 84.0737 25.3382V43.2145C84.0737 45.4836 85.0919 47.6364 86.8082 48.9745C88.5973 50.4 90.3282 51.1418 91.9719 51.2145C94.1828 51.2436 96.35 52.0436 98.1537 53.5127H98.27L99.1428 54.4C101.077 56.4073 102.154 59.1273 102.081 61.8618C102.139 64.48 101.019 67.2 99.0264 69.2073Z" />
    </mask>
    <path
        d="M124.248 3.70909C122.895 1.42545 120.423 0 117.775 0H11.9282C9.28096 0 6.80823 1.42545 5.4555 3.72364C4.08823 6.06545 4.08823 8.96 5.44096 11.2582L7.47732 14.7782V76.5673C7.66641 84.1455 9.63005 90.9818 13.3391 96.9018C19.2446 106.313 28.0446 110.72 35.0264 114.225L35.2155 114.327C38.0955 115.782 40.4082 116.698 42.6337 117.585L42.8082 117.658C45.8773 118.88 48.7719 120.029 53.63 122.633C56.1755 124 58.6046 125.425 60.9464 126.909C62.1391 127.622 63.4773 128 64.8446 128C66.2555 128 67.6228 127.607 68.8591 126.836C71.0991 125.425 73.5282 124 76.0591 122.647C80.9173 120.044 83.8119 118.895 86.8955 117.658C89.15 116.756 91.4919 115.825 94.4737 114.342L94.7064 114.225C101.761 110.691 110.503 106.284 116.379 96.9164C120.088 91.0109 122.052 84.1455 122.241 76.4073V14.7782L124.277 11.2436C125.615 8.91636 125.601 6.02182 124.248 3.70909ZM121.761 9.78909L119.405 13.8909C119.405 13.8909 119.346 14.0509 119.346 14.1382V76.3927C119.172 83.5345 117.354 89.9055 113.921 95.36C108.466 104.058 100.423 108.087 93.3391 111.651L93.1791 111.738C90.3137 113.178 88.03 114.08 85.8337 114.953C82.8082 116.16 79.6955 117.396 74.6919 120.073C72.1028 121.469 69.6155 122.924 67.3173 124.378C66.5755 124.844 65.7319 125.091 64.8591 125.091C64.03 125.091 63.201 124.858 62.4591 124.422C60.1028 122.938 57.63 121.484 55.0264 120.087C50.0228 117.396 46.91 116.16 43.8991 114.967L43.7246 114.895C41.4555 113.993 39.3028 113.135 36.5391 111.738L36.321 111.622C29.6737 108.291 21.281 104.087 15.8119 95.3745C12.3791 89.9055 10.561 83.5636 10.3864 76.5236V14.1382C10.3864 14.0509 10.3573 13.9636 10.3282 13.9055L7.97187 9.80364C7.14278 8.39273 7.14278 6.61818 7.97187 5.19273C8.80096 3.78182 10.3282 2.90909 11.9428 2.90909H117.775C119.405 2.90909 120.917 3.78182 121.746 5.19273C122.576 6.60364 122.59 8.37818 121.761 9.80364V9.78909Z"
        fill="url(#paint0_linear_456_292)" fill-opacity="0.55" />
    <path
        d="M64.8446 122.182C64.5246 122.182 64.2191 122.095 63.9428 121.92C61.4991 120.378 58.9537 118.909 56.3937 117.513C51.2446 114.749 48.0446 113.469 44.961 112.247C42.6919 111.345 40.5537 110.502 37.8337 109.135L37.7028 109.062C30.9391 105.673 23.2882 101.833 18.2555 93.8036C15.1137 88.8 13.441 82.9382 13.281 76.4218V14.1382C13.281 13.5418 13.121 12.96 12.83 12.4509L10.4591 8.34909C10.1537 7.82545 10.1537 7.18545 10.4591 6.66182C10.7646 6.13818 11.3173 5.81818 11.9282 5.81818H117.761C118.372 5.81818 118.925 6.13818 119.23 6.66182C119.535 7.18545 119.535 7.82545 119.23 8.34909L116.874 12.4509C116.583 12.9745 116.423 13.5564 116.423 14.1382V76.3927C116.263 82.9527 114.59 88.8145 111.448 93.8182C106.415 101.847 98.75 105.687 92.0009 109.076L91.87 109.149C89.15 110.516 87.0119 111.36 84.7428 112.262C81.6591 113.484 78.4591 114.764 73.31 117.527C70.75 118.909 68.2046 120.393 65.7609 121.935C65.4846 122.109 65.1791 122.196 64.8591 122.196L64.8446 122.182ZM14.8519 9.19273L15.7537 10.7636C16.3355 11.7818 16.6555 12.96 16.6555 14.1382V76.3927C16.801 82.2545 18.2991 87.5345 21.1064 92.0291C25.63 99.2582 32.8446 102.865 39.201 106.051L39.3319 106.124C41.9355 107.433 44.001 108.247 46.1973 109.12C49.3682 110.385 52.6555 111.68 57.9791 114.56C60.2919 115.811 62.6046 117.135 64.83 118.516C67.0555 117.149 69.3682 115.811 71.681 114.56C77.0046 111.695 80.2919 110.385 83.4628 109.12C85.6591 108.247 87.7246 107.418 90.3282 106.124L90.4591 106.051C96.8155 102.865 104.03 99.2582 108.554 92.0291C111.361 87.5345 112.859 82.2691 113.005 76.3491V14.1382C113.005 12.96 113.325 11.7964 113.906 10.7636L114.808 9.19273H14.8519Z"
        fill="url(#paint1_linear_456_292)" fill-opacity="0.45" />
    <path
        d="M101.237 52.3927L99.5064 50.6036H99.1137C97.0191 49.1636 94.59 48.3636 92.0446 48.3055C90.7937 48.2327 89.4991 47.4036 88.6119 46.6909C87.6082 45.9055 86.9828 44.5673 86.9828 43.2145V25.3382C86.9828 21.2364 83.6373 17.8909 79.521 17.8909C75.9573 17.8909 72.961 20.4218 72.2337 23.7818C72.03 20.32 69.4991 17.5855 66.1391 17.0036C65.5137 13.5564 62.4882 10.9236 58.8228 10.8945H58.8082C54.7064 10.9091 51.3755 14.2545 51.3755 18.3564V24.0436C51.201 32.5673 46.0228 43.2873 40.2046 47.36C39.2882 47.9564 38.4737 48.2909 37.761 48.3055C29.2373 48.6109 24.7428 55.2436 24.6991 61.6436C24.6555 68.0291 29.0337 74.7346 37.5282 75.1709C38.5755 75.2145 39.7682 75.7236 41.0337 76.6982C42.0373 77.4691 42.6628 78.8073 42.6628 80.1745V98.1527C42.6628 102.255 46.0082 105.6 50.11 105.6C53.6591 105.6 56.641 103.113 57.3828 99.7964C57.6446 103.2 60.1464 105.891 63.4628 106.473C64.1028 109.949 67.1573 112.582 70.8082 112.582C74.9246 112.582 78.2555 109.251 78.2555 105.135V101.731C81.95 101.28 84.8009 98.1382 84.8009 94.3418V82.4145C84.8009 81.4255 85.1064 80.48 85.63 79.7818C87.8264 76.9309 90.0373 75.3018 91.87 75.1854C95.3464 75.1418 98.6191 73.7455 101.092 71.2582C103.608 68.7273 105.019 65.28 104.99 61.8036C105.048 58.3418 103.681 54.9236 101.237 52.3927ZM99.0264 69.2073C97.0628 71.1855 94.4591 72.2764 91.6955 72.2764C89.0191 72.3927 86.1682 74.3273 83.3319 78.0218C82.401 79.2145 81.8919 80.7709 81.8919 82.4145V94.3418C81.8919 96.8436 79.8555 98.88 77.3537 98.88C76.641 98.88 75.9719 98.72 75.3755 98.4291C75.3609 98.7055 75.3464 98.9673 75.3464 99.2436V105.135C75.3464 107.636 73.31 109.673 70.8082 109.673C68.7428 109.673 66.9973 108.291 66.4446 106.415C66.3137 106.007 66.2555 105.571 66.2555 105.135V104.305C66.2555 104.029 66.241 103.738 66.241 103.447C65.79 103.607 65.31 103.68 64.8155 103.68C64.2919 103.68 63.7973 103.593 63.3319 103.433C61.5428 102.851 60.2773 101.193 60.2628 99.2145C60.2337 95.5055 59.2882 90.8655 57.5719 86.24C56.7719 84.0436 55.7973 81.8764 54.6628 79.8109V98.1527C54.6628 100.655 52.6119 102.691 50.11 102.691C47.6082 102.691 45.5719 100.655 45.5719 98.1527V80.1745C45.5719 77.8764 44.5391 75.7091 42.7937 74.3855C41.0482 73.0473 39.3173 72.3345 37.6446 72.2618C31.0119 71.9127 27.5791 66.6618 27.6082 61.6582C27.6373 56.6545 31.1719 51.4473 37.8628 51.2145C39.0846 51.2 40.3937 50.72 41.8046 49.7891C48.4664 45.1345 54.0955 33.6 54.2846 24.1018V18.3564C54.2846 15.8545 56.321 13.8182 58.8082 13.8036H58.8228C60.8882 13.8182 62.6191 15.1855 63.1719 17.0618C63.3028 17.4691 63.361 17.9055 63.361 18.3564V20.0291C63.8119 19.8691 64.2919 19.7964 64.8009 19.7964C65.31 19.7964 65.8191 19.8836 66.27 20.0291C68.0737 20.6109 69.3391 22.2691 69.3537 24.2618C69.3537 27.1273 69.8337 30.1818 70.8228 33.6291C71.1864 34.88 71.6082 36.1164 72.0737 37.3382C72.9028 39.5345 73.8919 41.6582 74.9828 43.6218V25.3382C74.9828 22.8364 77.0191 20.8 79.521 20.8C82.0228 20.8 84.0737 22.8364 84.0737 25.3382V43.2145C84.0737 45.4836 85.0919 47.6364 86.8082 48.9745C88.5973 50.4 90.3282 51.1418 91.9719 51.2145C94.1828 51.2436 96.35 52.0436 98.1537 53.5127H98.27L99.1428 54.4C101.077 56.4073 102.154 59.1273 102.081 61.8618C102.139 64.48 101.019 67.2 99.0264 69.2073Z"
        fill="url(#paint2_linear_456_292)" fill-opacity="0.55" />
    <path
        d="M124.248 3.70909C122.895 1.42545 120.423 0 117.775 0H11.9282C9.28096 0 6.80823 1.42545 5.4555 3.72364C4.08823 6.06545 4.08823 8.96 5.44096 11.2582L7.47732 14.7782V76.5673C7.66641 84.1455 9.63005 90.9818 13.3391 96.9018C19.2446 106.313 28.0446 110.72 35.0264 114.225L35.2155 114.327C38.0955 115.782 40.4082 116.698 42.6337 117.585L42.8082 117.658C45.8773 118.88 48.7719 120.029 53.63 122.633C56.1755 124 58.6046 125.425 60.9464 126.909C62.1391 127.622 63.4773 128 64.8446 128C66.2555 128 67.6228 127.607 68.8591 126.836C71.0991 125.425 73.5282 124 76.0591 122.647C80.9173 120.044 83.8119 118.895 86.8955 117.658C89.15 116.756 91.4919 115.825 94.4737 114.342L94.7064 114.225C101.761 110.691 110.503 106.284 116.379 96.9164C120.088 91.0109 122.052 84.1455 122.241 76.4073V14.7782L124.277 11.2436C125.615 8.91636 125.601 6.02182 124.248 3.70909ZM121.761 9.78909L119.405 13.8909C119.405 13.8909 119.346 14.0509 119.346 14.1382V76.3927C119.172 83.5345 117.354 89.9055 113.921 95.36C108.466 104.058 100.423 108.087 93.3391 111.651L93.1791 111.738C90.3137 113.178 88.03 114.08 85.8337 114.953C82.8082 116.16 79.6955 117.396 74.6919 120.073C72.1028 121.469 69.6155 122.924 67.3173 124.378C66.5755 124.844 65.7319 125.091 64.8591 125.091C64.03 125.091 63.201 124.858 62.4591 124.422C60.1028 122.938 57.63 121.484 55.0264 120.087C50.0228 117.396 46.91 116.16 43.8991 114.967L43.7246 114.895C41.4555 113.993 39.3028 113.135 36.5391 111.738L36.321 111.622C29.6737 108.291 21.281 104.087 15.8119 95.3745C12.3791 89.9055 10.561 83.5636 10.3864 76.5236V14.1382C10.3864 14.0509 10.3573 13.9636 10.3282 13.9055L7.97187 9.80364C7.14278 8.39273 7.14278 6.61818 7.97187 5.19273C8.80096 3.78182 10.3282 2.90909 11.9428 2.90909H117.775C119.405 2.90909 120.917 3.78182 121.746 5.19273C122.576 6.60364 122.59 8.37818 121.761 9.80364V9.78909Z"
        stroke="url(#paint3_linear_456_292)" stroke-width="0.2" mask="url(#path-1-inside-1_456_292)" />
    <path
        d="M64.8446 122.182C64.5246 122.182 64.2191 122.095 63.9428 121.92C61.4991 120.378 58.9537 118.909 56.3937 117.513C51.2446 114.749 48.0446 113.469 44.961 112.247C42.6919 111.345 40.5537 110.502 37.8337 109.135L37.7028 109.062C30.9391 105.673 23.2882 101.833 18.2555 93.8036C15.1137 88.8 13.441 82.9382 13.281 76.4218V14.1382C13.281 13.5418 13.121 12.96 12.83 12.4509L10.4591 8.34909C10.1537 7.82545 10.1537 7.18545 10.4591 6.66182C10.7646 6.13818 11.3173 5.81818 11.9282 5.81818H117.761C118.372 5.81818 118.925 6.13818 119.23 6.66182C119.535 7.18545 119.535 7.82545 119.23 8.34909L116.874 12.4509C116.583 12.9745 116.423 13.5564 116.423 14.1382V76.3927C116.263 82.9527 114.59 88.8145 111.448 93.8182C106.415 101.847 98.75 105.687 92.0009 109.076L91.87 109.149C89.15 110.516 87.0119 111.36 84.7428 112.262C81.6591 113.484 78.4591 114.764 73.31 117.527C70.75 118.909 68.2046 120.393 65.7609 121.935C65.4846 122.109 65.1791 122.196 64.8591 122.196L64.8446 122.182ZM14.8519 9.19273L15.7537 10.7636C16.3355 11.7818 16.6555 12.96 16.6555 14.1382V76.3927C16.801 82.2545 18.2991 87.5345 21.1064 92.0291C25.63 99.2582 32.8446 102.865 39.201 106.051L39.3319 106.124C41.9355 107.433 44.001 108.247 46.1973 109.12C49.3682 110.385 52.6555 111.68 57.9791 114.56C60.2919 115.811 62.6046 117.135 64.83 118.516C67.0555 117.149 69.3682 115.811 71.681 114.56C77.0046 111.695 80.2919 110.385 83.4628 109.12C85.6591 108.247 87.7246 107.418 90.3282 106.124L90.4591 106.051C96.8155 102.865 104.03 99.2582 108.554 92.0291C111.361 87.5345 112.859 82.2691 113.005 76.3491V14.1382C113.005 12.96 113.325 11.7964 113.906 10.7636L114.808 9.19273H14.8519Z"
        stroke="url(#paint4_linear_456_292)" stroke-width="0.2" mask="url(#path-1-inside-1_456_292)" />
    <path
        d="M101.237 52.3927L99.5064 50.6036H99.1137C97.0191 49.1636 94.59 48.3636 92.0446 48.3055C90.7937 48.2327 89.4991 47.4036 88.6119 46.6909C87.6082 45.9055 86.9828 44.5673 86.9828 43.2145V25.3382C86.9828 21.2364 83.6373 17.8909 79.521 17.8909C75.9573 17.8909 72.961 20.4218 72.2337 23.7818C72.03 20.32 69.4991 17.5855 66.1391 17.0036C65.5137 13.5564 62.4882 10.9236 58.8228 10.8945H58.8082C54.7064 10.9091 51.3755 14.2545 51.3755 18.3564V24.0436C51.201 32.5673 46.0228 43.2873 40.2046 47.36C39.2882 47.9564 38.4737 48.2909 37.761 48.3055C29.2373 48.6109 24.7428 55.2436 24.6991 61.6436C24.6555 68.0291 29.0337 74.7346 37.5282 75.1709C38.5755 75.2145 39.7682 75.7236 41.0337 76.6982C42.0373 77.4691 42.6628 78.8073 42.6628 80.1745V98.1527C42.6628 102.255 46.0082 105.6 50.11 105.6C53.6591 105.6 56.641 103.113 57.3828 99.7964C57.6446 103.2 60.1464 105.891 63.4628 106.473C64.1028 109.949 67.1573 112.582 70.8082 112.582C74.9246 112.582 78.2555 109.251 78.2555 105.135V101.731C81.95 101.28 84.8009 98.1382 84.8009 94.3418V82.4145C84.8009 81.4255 85.1064 80.48 85.63 79.7818C87.8264 76.9309 90.0373 75.3018 91.87 75.1854C95.3464 75.1418 98.6191 73.7455 101.092 71.2582C103.608 68.7273 105.019 65.28 104.99 61.8036C105.048 58.3418 103.681 54.9236 101.237 52.3927ZM99.0264 69.2073C97.0628 71.1855 94.4591 72.2764 91.6955 72.2764C89.0191 72.3927 86.1682 74.3273 83.3319 78.0218C82.401 79.2145 81.8919 80.7709 81.8919 82.4145V94.3418C81.8919 96.8436 79.8555 98.88 77.3537 98.88C76.641 98.88 75.9719 98.72 75.3755 98.4291C75.3609 98.7055 75.3464 98.9673 75.3464 99.2436V105.135C75.3464 107.636 73.31 109.673 70.8082 109.673C68.7428 109.673 66.9973 108.291 66.4446 106.415C66.3137 106.007 66.2555 105.571 66.2555 105.135V104.305C66.2555 104.029 66.241 103.738 66.241 103.447C65.79 103.607 65.31 103.68 64.8155 103.68C64.2919 103.68 63.7973 103.593 63.3319 103.433C61.5428 102.851 60.2773 101.193 60.2628 99.2145C60.2337 95.5055 59.2882 90.8655 57.5719 86.24C56.7719 84.0436 55.7973 81.8764 54.6628 79.8109V98.1527C54.6628 100.655 52.6119 102.691 50.11 102.691C47.6082 102.691 45.5719 100.655 45.5719 98.1527V80.1745C45.5719 77.8764 44.5391 75.7091 42.7937 74.3855C41.0482 73.0473 39.3173 72.3345 37.6446 72.2618C31.0119 71.9127 27.5791 66.6618 27.6082 61.6582C27.6373 56.6545 31.1719 51.4473 37.8628 51.2145C39.0846 51.2 40.3937 50.72 41.8046 49.7891C48.4664 45.1345 54.0955 33.6 54.2846 24.1018V18.3564C54.2846 15.8545 56.321 13.8182 58.8082 13.8036H58.8228C60.8882 13.8182 62.6191 15.1855 63.1719 17.0618C63.3028 17.4691 63.361 17.9055 63.361 18.3564V20.0291C63.8119 19.8691 64.2919 19.7964 64.8009 19.7964C65.31 19.7964 65.8191 19.8836 66.27 20.0291C68.0737 20.6109 69.3391 22.2691 69.3537 24.2618C69.3537 27.1273 69.8337 30.1818 70.8228 33.6291C71.1864 34.88 71.6082 36.1164 72.0737 37.3382C72.9028 39.5345 73.8919 41.6582 74.9828 43.6218V25.3382C74.9828 22.8364 77.0191 20.8 79.521 20.8C82.0228 20.8 84.0737 22.8364 84.0737 25.3382V43.2145C84.0737 45.4836 85.0919 47.6364 86.8082 48.9745C88.5973 50.4 90.3282 51.1418 91.9719 51.2145C94.1828 51.2436 96.35 52.0436 98.1537 53.5127H98.27L99.1428 54.4C101.077 56.4073 102.154 59.1273 102.081 61.8618C102.139 64.48 101.019 67.2 99.0264 69.2073Z"
        stroke="url(#paint5_linear_456_292)" stroke-width="0.2" mask="url(#path-1-inside-1_456_292)" />
    <path
        d="M64.8176 22.9089C65.1847 22.909 65.5454 23.0282 65.8118 23.2566C66.0412 23.4534 66.2087 23.7383 66.2493 24.1218L66.259 24.2927C66.2592 27.5463 66.813 30.7446 67.676 33.862L67.8528 34.4851C69.7161 40.8348 73.4279 48.7162 78.804 54.07C73.2699 54.9356 69.0227 59.6978 68.9807 65.4558L68.9641 65.4734V85.5202C67.3217 89.9048 66.2737 94.5565 66.259 99.1989V99.1999C66.259 99.6707 66.0798 100.011 65.8196 100.235C65.5552 100.463 65.1955 100.582 64.8284 100.582C64.4612 100.582 64.1006 100.463 63.8342 100.234C63.572 100.009 63.3893 99.6697 63.386 99.1989V99.198C63.3493 94.6437 62.1207 89.0364 59.9153 83.6169C57.7636 78.3295 54.676 73.2064 50.843 69.405C56.4038 68.5344 60.6663 63.7302 60.6663 57.9343V38.0573C62.3526 33.4531 63.2984 28.687 63.386 24.2946V24.2907C63.386 23.8199 63.5662 23.48 63.8264 23.2556C64.0908 23.0277 64.4505 22.9089 64.8176 22.9089ZM58.8293 16.9275C59.6176 16.931 60.2521 17.5671 60.2522 18.3562V24.2185C60.1721 29.8915 58.4683 36.0865 55.7395 41.5876C53.0104 47.0892 49.2644 51.8792 45.1125 54.7566C42.7228 56.3401 40.345 57.1528 38.0061 57.1814L38.0022 57.1823C36.4951 57.2276 35.3822 57.8103 34.6487 58.6667C33.9187 59.5192 33.5754 60.6293 33.5754 61.7165C33.5755 62.767 33.908 63.879 34.6194 64.7468C35.3345 65.6189 36.4241 66.2341 37.9124 66.2946H37.9163C41.722 66.3886 45.0649 68.4831 47.3401 70.4021L47.7815 70.7829C50.167 72.8973 51.5392 75.9551 51.5393 79.1706V98.1384C51.5392 98.9297 50.9009 99.5671 50.1096 99.5671C49.3185 99.5669 48.681 98.9295 48.6809 98.1384V80.1745C48.6809 76.9152 47.1851 73.8152 44.6897 71.9138H44.6887C42.4245 70.1936 40.1031 69.2571 37.7991 69.153H37.8C35.3383 69.0249 33.5696 68.0097 32.4172 66.6071C31.2616 65.2005 30.7175 63.3935 30.7317 61.6745C30.7459 59.9634 31.3254 58.1664 32.5149 56.779C33.7009 55.3958 35.5019 54.4094 37.9856 54.3239L37.9846 54.323C39.7629 54.2926 41.6172 53.6359 43.5295 52.3708L43.5334 52.3679C47.3295 49.7246 50.742 45.3011 53.2317 40.2341C55.7221 35.1656 57.2986 29.4344 57.4084 24.1638V18.3562C57.4085 17.5675 58.0417 16.9317 58.8293 16.9275ZM80.5969 57.5818H83.1448C85.687 59.1646 88.496 60.1697 91.5706 60.3015H91.5793C92.0541 60.3016 92.3942 60.4821 92.6184 60.7419C92.8462 61.0059 92.9641 61.3647 92.9641 61.7312V61.7458C92.964 62.1125 92.8464 62.4752 92.6184 62.7409C92.4224 62.9694 92.1379 63.1351 91.7532 63.1687L91.5813 63.1745H91.5715C82.9122 63.5175 76.708 70.576 72.6223 77.7361V65.5417C72.6224 61.1437 76.198 57.5819 80.5969 57.5818ZM57.0227 57.9636C57.0227 62.3618 53.4472 65.9236 49.0481 65.9236H46.4661C43.8881 64.3031 41.0715 63.3214 38.0608 63.1892H38.0549C37.583 63.1827 37.2419 62.9999 37.0168 62.739C36.7886 62.4742 36.6702 62.1176 36.6702 61.7546C36.6702 61.3916 36.7889 61.0359 37.0168 60.7732C37.2414 60.5144 37.5813 60.3341 38.053 60.3308H38.054C41.2584 60.3012 44.2191 59.1493 46.8606 57.3884L46.8645 57.3855C50.8821 54.5856 54.3287 50.5324 57.0227 45.9099V57.9636ZM69.3792 104.301C69.2629 99.0687 69.3228 93.4725 71.5774 87.5036V87.5027C73.3191 82.858 75.7754 77.739 79.0813 73.6902C82.3846 69.6446 86.5205 66.6855 91.6262 66.3093H91.7102C93.3993 66.3092 94.8061 65.4058 95.5627 63.8806L95.7053 63.5681C96.4611 61.7692 96.1173 59.7747 94.802 58.49H94.803C94.0324 57.7337 93.0468 57.285 91.9387 57.2068L91.7151 57.196C87.6423 57.0815 84.0803 54.6341 81.7932 52.5642H81.7922C79.4493 50.435 78.1068 47.3908 78.1067 44.2331V25.3386C78.1067 24.5472 78.744 23.9089 79.5354 23.9089C80.3268 23.9089 80.9641 24.5472 80.9641 25.3386V43.2146C80.9641 46.3157 82.3408 49.2934 84.6672 51.2312L84.8958 51.4157C87.1885 53.2379 89.526 54.2188 91.8469 54.323V54.3239H91.8528C93.6138 54.3505 95.2908 55.0468 96.6272 56.3025L96.8899 56.5612L96.8918 56.5632L96.9055 56.5486C98.2648 57.9656 99.0143 59.8623 98.9719 61.7702V61.7771C99.0002 63.6838 98.2084 65.582 96.804 67.0007C95.4018 68.417 93.577 69.153 91.6809 69.153V69.1521L91.6721 69.153C87.9087 69.3167 84.2528 71.6807 80.8459 76.1111C79.5086 77.8497 78.7678 80.0895 78.7678 82.4001V94.3269C78.7678 95.1182 78.1304 95.7565 77.3391 95.7566C76.5478 95.7566 75.9104 95.1182 75.9104 94.3269V85.3239L75.5276 85.2419C73.3951 90.0326 72.2375 94.9191 72.2375 99.2292V105.134C72.2375 105.926 71.5992 106.563 70.8079 106.563C70.0166 106.563 69.3792 105.926 69.3792 105.134V104.301Z"
        fill="url(#paint6_linear_456_292)" fill-opacity="0.45" stroke="url(#paint7_linear_456_292)" stroke-width="0.1" />
    <defs>
        <linearGradient id="paint0_linear_456_292" x1="5.66804" y1="1.12593" x2="113.285" y2="102.531"
            gradientUnits="userSpaceOnUse">
            <stop offset="0.358553" stop-color="white" stop-opacity="0" />
            <stop offset="0.882296" stop-color="white" />
        </linearGradient>
        <linearGradient id="paint1_linear_456_292" x1="5.66804" y1="1.12593" x2="113.285" y2="102.531"
            gradientUnits="userSpaceOnUse">
            <stop offset="0.358553" stop-color="white" stop-opacity="0" />
            <stop offset="0.882296" stop-color="white" />
        </linearGradient>
        <linearGradient id="paint2_linear_456_292" x1="5.66804" y1="1.12593" x2="113.285" y2="102.531"
            gradientUnits="userSpaceOnUse">
            <stop offset="0.358553" stop-color="white" stop-opacity="0" />
            <stop offset="0.882296" stop-color="white" />
        </linearGradient>
        <linearGradient id="paint3_linear_456_292" x1="108.094" y1="110.931" x2="17.3482" y2="10.5218"
            gradientUnits="userSpaceOnUse">
            <stop offset="0.206666" stop-color="white" />
            <stop offset="0.716666" stop-color="white" stop-opacity="0" />
        </linearGradient>
        <linearGradient id="paint4_linear_456_292" x1="108.094" y1="110.931" x2="17.3482" y2="10.5218"
            gradientUnits="userSpaceOnUse">
            <stop offset="0.206666" stop-color="white" />
            <stop offset="0.716666" stop-color="white" stop-opacity="0" />
        </linearGradient>
        <linearGradient id="paint5_linear_456_292" x1="108.094" y1="110.931" x2="17.3482" y2="10.5218"
            gradientUnits="userSpaceOnUse">
            <stop offset="0.206666" stop-color="white" />
            <stop offset="0.716666" stop-color="white" stop-opacity="0" />
        </linearGradient>
        <linearGradient id="paint6_linear_456_292" x1="31.2357" y1="17.5193" x2="104.323" y2="73.1328"
            gradientUnits="userSpaceOnUse">
            <stop offset="0.358553" stop-color="white" stop-opacity="0" />
            <stop offset="0.882296" stop-color="white" />
        </linearGradient>
        <linearGradient id="paint7_linear_456_292" x1="89.416" y1="94.7569" x2="25.6621" y2="37.7915"
            gradientUnits="userSpaceOnUse">
            <stop offset="0.206666" stop-color="white" />
            <stop offset="0.716666" stop-color="white" stop-opacity="0" />
        </linearGradient>
    </defs>
</svg>