<svg width="129" height="128" viewBox="0 0 129 128" fill="none" xmlns="http://www.w3.org/2000/svg">
    <g clip-path="url(#clip0_262_786)">
        <path
            d="M64.8501 7.79793C58.026 7.79801 51.5577 10.4155 47.0942 14.9346L47.0933 14.9356C42.9239 19.1976 40.7203 24.784 40.6597 31.0264L40.6606 31.6329V39.2686C32.9468 39.2841 22.1425 40.2141 15.0376 47.1436V47.0968L14.6958 47.4454C11.9254 50.2645 8.70837 55.2397 8.61963 62.8761L8.62061 63.6231C8.50182 71.9578 11.8348 77.1637 14.6948 80.0743V80.0753C21.7119 87.2365 32.5848 88.2338 40.3823 88.2891C40.4407 96.5632 41.741 106.575 47.7554 113.226L48.0474 113.542C52.1549 117.906 57.8293 120.202 64.6909 120.202H65.2095C71.8727 120.202 77.5469 117.905 81.6538 113.542C87.9579 106.856 89.2592 96.6944 89.3179 88.2891C97.1153 88.2339 107.988 87.2364 115.005 80.0753C117.864 77.166 121.199 71.9601 121.081 63.9034C121.201 55.5647 117.866 50.3565 115.005 47.4454C107.909 40.2051 96.841 39.2444 89.0405 39.2286V31.753C89.1208 25.1467 86.9113 19.3355 82.6069 14.9356V14.9346L82.1821 14.5167C77.7382 10.2545 71.461 7.79793 64.8501 7.79793ZM33.0503 31.587C32.9316 23.2812 36.0211 15.376 41.6812 9.57722C47.5389 3.58016 55.9746 0.160233 64.811 0.160233C73.6467 0.160351 82.0827 3.61939 87.9409 9.57722V9.5782C93.6389 15.3356 96.6896 23.2397 96.5708 31.7872L96.5679 31.9688L96.7485 31.9893C103.946 32.7873 113.493 35.0988 120.378 42.127C124.215 46.0567 128.77 52.9654 128.651 63.7774V63.7813C128.73 74.594 124.216 81.5033 120.379 85.4327C113.612 92.3029 104.66 94.7337 96.6714 95.5313L96.5083 95.547L96.4917 95.71C95.6969 103.685 93.2755 112.233 87.1411 118.746H87.1401C83.2638 122.874 76.3002 127.8 65.2095 127.8H64.4917C53.3999 127.8 46.4359 122.914 42.5601 118.786C36.4656 112.313 34.0432 103.766 33.2085 95.7491L33.1919 95.588L33.0308 95.5714L32.353 95.4952C25.2756 94.6638 16.0316 92.2806 9.32275 85.4337C5.48562 81.504 0.93145 74.5947 1.05029 63.7823V63.7774C0.931608 52.9672 5.48337 46.0579 9.28174 42.087C16.0098 35.2564 24.9228 32.7868 32.8706 31.9893L33.0503 31.9708V31.587Z"
            fill="url(#paint0_linear_262_786)" fill-opacity="0.55" stroke="url(#paint1_linear_262_786)"
            stroke-width="0.1" />
        <path
            d="M49.0305 31.6273C48.9517 26.4666 50.9097 22.6098 53.8772 20.0404C56.8493 17.4672 60.8458 16.1752 64.8499 16.1752C68.854 16.1752 72.8504 17.4672 75.8225 20.0404C78.7901 22.6098 80.749 26.4665 80.6702 31.6273V47.9174L80.8821 47.9047C87.0034 47.5445 95.0489 47.2288 101.526 49.1566C104.76 50.1196 107.588 51.6381 109.59 53.976C111.589 56.3103 112.779 59.4797 112.71 63.7767H112.709L112.71 63.7836C112.779 68.0808 111.59 71.2473 109.595 73.5785C107.596 75.9133 104.773 77.4286 101.54 78.3891C95.0683 80.312 87.0231 79.9958 80.8811 79.6557L80.6575 79.643L80.6702 79.8666C81.0291 86.0089 81.3443 94.082 79.4231 100.581C78.4634 103.828 76.9494 106.666 74.6194 108.674C72.2931 110.68 69.1348 111.874 64.8528 111.805H64.8469C60.5649 111.874 57.4093 110.682 55.0862 108.68C52.7594 106.675 51.2495 103.841 50.2922 100.597C48.3758 94.1024 48.6905 86.0287 49.0295 79.8656L49.0422 79.642L48.8186 79.6557C42.6973 80.0158 34.6519 80.3315 28.175 78.4037C24.9401 77.4408 22.1123 75.9223 20.1106 73.5844C18.112 71.25 16.9215 68.0807 16.9905 63.7836V63.7767C16.9214 59.4794 18.1093 56.3121 20.1047 53.9809C22.1032 51.6463 24.9271 50.1317 28.1594 49.1713C34.6314 47.2484 42.6766 47.5645 48.8186 47.9047L49.0305 47.9164V31.6273Z"
            fill="url(#paint2_linear_262_786)" fill-opacity="0.45" stroke="url(#paint3_linear_262_786)"
            stroke-width="0.1" />
    </g>
    <defs>
        <linearGradient id="paint0_linear_262_786" x1="2.16143" y1="1.08632" x2="109.869" y2="108.824"
            gradientUnits="userSpaceOnUse">
            <stop offset="0.396001" stop-color="white" stop-opacity="0" />
            <stop offset="0.796666" stop-color="white" />
        </linearGradient>
        <linearGradient id="paint1_linear_262_786" x1="110.657" y1="110.925" x2="20.58" y2="5.32484"
            gradientUnits="userSpaceOnUse">
            <stop offset="0.206666" stop-color="white" />
            <stop offset="0.714863" stop-color="white" stop-opacity="0" />
        </linearGradient>
        <linearGradient id="paint2_linear_262_786" x1="17.7736" y1="16.8197" x2="98.6568" y2="97.6253"
            gradientUnits="userSpaceOnUse">
            <stop offset="0.358553" stop-color="white" stop-opacity="0" />
            <stop offset="0.882296" stop-color="white" />
        </linearGradient>
        <linearGradient id="paint3_linear_262_786" x1="99.2484" y1="99.2014" x2="31.6802" y2="19.9346"
            gradientUnits="userSpaceOnUse">
            <stop offset="0.206666" stop-color="white" />
            <stop offset="0.716666" stop-color="white" stop-opacity="0" />
        </linearGradient>
        <clipPath id="clip0_262_786">
            <rect width="128" height="128" fill="white" transform="translate(0.850098)" />
        </clipPath>
    </defs>
</svg>