<svg width="129" height="128" viewBox="0 0 129 128" fill="none" xmlns="http://www.w3.org/2000/svg">
    <path
        d="M90.0663 0.231476H102.058C105.053 0.231476 107.694 2.02631 108.763 4.82523V4.8262C109.847 7.62508 109.085 10.7123 106.854 12.7061H106.853C106.773 12.7785 106.692 12.8549 106.614 12.9287C106.535 13.0033 106.459 13.0754 106.383 13.1436L105.994 13.4922H118.038C118.345 13.4922 118.649 13.5078 118.95 13.5528L118.952 13.5537C121.376 13.8878 123.446 15.5276 124.268 17.8633L124.296 17.9395L124.325 17.9541C125.212 20.5595 124.372 23.4497 122.228 25.1944C117.91 28.6956 114.471 32.6707 111.993 37.0264V37.0274C109.387 41.622 108.424 45.5911 106.511 53.4356C105.398 57.9781 104.058 63.4767 101.985 70.8223L101.051 74.086C100.289 76.682 98.0955 78.487 95.4598 78.7754L95.3153 78.791L95.286 78.9336C93.7229 86.5336 90.1138 93.6535 84.8016 98.3096L84.6581 98.4356L84.7782 98.585C87.3976 101.843 88.7484 106.108 88.3446 110.797C87.6768 118.518 81.7005 126.444 71.5389 126.737H25.2089L25.1942 126.739C24.8874 126.785 24.5681 126.815 24.2509 126.815H12.2587C9.26407 126.815 6.62339 125.021 5.55457 122.222V122.221L5.45789 121.957C4.51939 119.23 5.3032 116.272 7.46375 114.341C13.7342 108.707 18.0452 99.5227 18.1718 91.4727V56.5332C18.1718 46.0364 22.2694 35.1027 29.5311 28.7373L29.6757 28.6114L29.5555 28.4619C26.9361 25.2036 25.5844 20.9387 25.9882 16.25C26.6302 8.65 32.4462 0.851178 42.3358 0.329132L42.8094 0.309601H89.1083L89.1229 0.307648C89.4297 0.261802 89.749 0.231484 90.0663 0.231476ZM90.0507 2.91214C89.8203 2.91214 89.5781 2.94363 89.3544 2.99026H42.9403C33.9315 3.21236 29.2384 10.1177 28.6981 16.4346V16.4356C28.3394 20.7567 29.8793 25.6796 33.826 28.834C25.5776 34.0984 20.8954 45.5708 20.8954 56.4864V91.4854C20.7538 100.23 16.0719 110.216 9.26843 116.326V116.327C7.88884 117.571 7.4273 119.487 8.08484 121.207V121.208C8.75823 122.943 10.3867 124.057 12.243 124.057H24.2352C24.4799 124.057 24.7065 124.025 24.9276 123.979H71.3612C80.37 123.756 85.0631 116.851 85.6034 110.534V110.533C85.9622 106.212 84.422 101.288 80.4745 98.1338C87.412 93.6906 91.8129 84.867 93.035 75.6846C93.5471 75.9312 94.1143 76.0782 94.6971 76.0782C96.434 76.078 97.9251 74.9558 98.4052 73.291C100.36 66.5787 101.723 61.2828 102.812 56.8838L103.822 52.7647C105.738 44.8938 106.785 40.5742 109.578 35.6612V35.6602C112.217 31.0083 115.874 26.7741 120.471 23.0664L120.478 23.0596L120.486 23.0518L120.493 23.044C121.763 22.0198 122.24 20.2924 121.695 18.7617V18.7608L121.593 18.5069C121.042 17.2577 119.868 16.3918 118.533 16.2217C118.359 16.1888 118.188 16.1895 118.038 16.1895H100.138C101.584 14.1348 103.222 12.2537 105.017 10.6426V10.6416C106.397 9.39806 106.859 7.48138 106.201 5.76175L106.2 5.76077L106.063 5.44339C105.323 3.89155 103.783 2.91214 102.043 2.91214H90.0507Z"
        fill="url(#paint0_linear_261_680)" fill-opacity="0.55" stroke="url(#paint1_linear_261_680)" stroke-width="0.1" />
    <path
        d="M102.058 6.45558C102.833 6.45558 103.225 7.34519 102.766 7.90675L102.663 8.01418C95.3574 14.5851 90.0406 25.3177 89.8668 35.4331V70.4829C89.8668 76.4244 88.238 83.0534 85.0826 88.2671C81.9278 93.4798 77.2625 97.2556 71.1891 97.5562H46.0533C45.7799 97.5562 45.6022 97.7938 45.6022 98.0376C45.6022 98.2814 45.7799 98.5191 46.0533 98.5191H71.1989C71.9541 98.5191 72.6955 98.5952 73.4381 98.7339C79.8401 99.9934 82.5598 105.334 82.0465 110.418C81.533 115.504 77.7871 120.297 71.2574 120.451H24.0192V120.529H12.2272C11.4011 120.529 11.0103 119.517 11.6227 118.97H11.6237C18.929 112.399 24.2458 101.667 24.4196 91.5513V56.5015C24.4196 50.5599 26.0483 43.9311 29.2037 38.7173C32.2599 33.6677 36.7329 29.9662 42.5309 29.4663L43.0963 29.4282H68.2321C68.5055 29.4282 68.6832 29.1906 68.6832 28.9468C68.6832 28.703 68.5055 28.4653 68.2321 28.4653H43.0865C42.3312 28.4653 41.59 28.3883 40.8473 28.2495H40.8463C34.4455 26.9895 31.7257 21.6497 32.2389 16.5659C32.7364 11.6391 36.2677 6.98669 42.4244 6.56105L43.0289 6.53371H90.2662V6.45558H102.058Z"
        fill="url(#paint2_linear_261_680)" fill-opacity="0.45" stroke="url(#paint3_linear_261_680)" stroke-width="0.1" />
    <path
        d="M99.3274 19.7326H117.93L117.946 19.7639H118.069C118.383 19.7639 118.517 20.1518 118.274 20.3459H118.273C112.483 25.0108 109.031 29.6643 106.919 33.2453L106.515 33.9465C104.045 38.2939 102.847 42.1188 101.427 47.7385C100.007 53.3576 98.3647 60.7745 95.0071 72.3342C94.9539 72.5172 94.7969 72.5904 94.637 72.5647C94.4786 72.539 94.3534 72.4227 94.3625 72.2297C94.3943 71.6448 94.3948 71.0604 94.3948 70.4983V35.4865C94.4727 30.3814 96.1871 24.8468 98.9368 19.9592L98.9377 19.9563C99.0107 19.8213 99.1611 19.7326 99.3274 19.7326Z"
        fill="url(#paint4_linear_261_680)" fill-opacity="0.45" stroke="url(#paint5_linear_261_680)" stroke-width="0.1" />
    <defs>
        <linearGradient id="paint0_linear_261_680" x1="6.09831" y1="1.14827" x2="112.777" y2="101.966"
            gradientUnits="userSpaceOnUse">
            <stop offset="0.301666" stop-color="white" stop-opacity="0" />
            <stop offset="0.796666" stop-color="white" />
        </linearGradient>
        <linearGradient id="paint1_linear_261_680" x1="107.816" y1="110.082" x2="17.7997" y2="10.3775"
            gradientUnits="userSpaceOnUse">
            <stop offset="0.206666" stop-color="white" />
            <stop offset="0.716666" stop-color="white" stop-opacity="0" />
        </linearGradient>
        <linearGradient id="paint2_linear_261_680" x1="12.067" y1="7.26233" x2="106.142" y2="82.902"
            gradientUnits="userSpaceOnUse">
            <stop offset="0.301666" stop-color="white" stop-opacity="0" />
            <stop offset="0.796666" stop-color="white" />
        </linearGradient>
        <linearGradient id="paint3_linear_261_680" x1="90.0796" y1="105.463" x2="8.65122" y2="28.7307"
            gradientUnits="userSpaceOnUse">
            <stop offset="0.206666" stop-color="white" />
            <stop offset="0.716666" stop-color="white" stop-opacity="0" />
        </linearGradient>
        <linearGradient id="paint4_linear_261_680" x1="94.4131" y1="20.0007" x2="128.381" y2="35.593"
            gradientUnits="userSpaceOnUse">
            <stop offset="0.301666" stop-color="white" stop-opacity="0" />
            <stop offset="0.796666" stop-color="white" />
        </linearGradient>
        <linearGradient id="paint5_linear_261_680" x1="115.126" y1="65.6699" x2="83.4701" y2="48.6394"
            gradientUnits="userSpaceOnUse">
            <stop offset="0.206666" stop-color="white" />
            <stop offset="0.716666" stop-color="white" stop-opacity="0" />
        </linearGradient>
    </defs>
</svg>