<svg width="129" height="128" viewBox="0 0 129 128" fill="none" xmlns="http://www.w3.org/2000/svg">
    <g clip-path="url(#clip0_261_682)">
        <path
            d="M64.9922 0.200195C66.6856 0.200334 68.0596 1.566 68.0596 3.24316C68.0596 5.47104 68.7354 22.0712 69.3506 34.8516L69.3584 35.0225L69.5293 35.041C84.4022 36.5978 96.087 49.7038 95.7949 64.7988V64.8027C95.7786 79.4681 84.6022 92.2998 69.8027 94.5986L69.7979 94.5996C69.6884 94.6194 69.5772 94.6288 69.4512 94.6396L69.2764 94.6553L69.2686 94.8301C68.686 107.264 68.0596 122.686 68.0596 124.757C68.0596 126.434 66.6856 127.8 64.9922 127.8C63.2987 127.8 61.9248 126.434 61.9248 124.757C61.9248 122.68 61.2978 107.242 60.7207 94.8027L60.7119 94.6211L60.5303 94.6123L60.3633 94.5986C60.3072 94.5923 60.2496 94.5843 60.1895 94.5762H60.1904C36.0899 91.0205 25.4029 61.0703 42.7412 43.5713V43.5703C47.408 38.8202 53.808 35.755 60.4609 35.041L60.6309 35.0225L60.6387 34.8516C61.2485 22.0821 61.9248 5.47641 61.9248 3.24316C61.9248 1.56592 63.2987 0.200195 64.9922 0.200195ZM69.3994 35.9453C69.443 36.6757 69.4694 37.408 69.5078 38.1328C69.5084 38.1897 69.5138 38.245 69.5186 38.292V38.293C69.5349 38.6765 69.5514 39.0512 69.5732 39.4258C69.5893 39.803 69.6121 40.1908 69.6279 40.5479L69.6348 40.6953L69.7773 40.7324C80.5214 43.5097 88.2367 53.6006 87.6484 64.5869L87.6475 64.5898C87.2914 74.6143 79.735 83.4578 69.8721 85.6279L69.7227 85.6611L69.7148 85.8125C69.5787 88.4178 69.4431 91.0728 69.3232 93.7383L69.3125 93.9717L69.5449 93.9463L69.6895 93.9297L69.6953 93.9287C84.1599 91.6764 95.0873 79.138 95.1055 64.79C95.3851 50.0924 84.0676 37.3348 69.6211 35.7344L69.3857 35.709L69.3994 35.9453ZM60.3701 35.7295C42.1817 37.5426 30.2797 57.1366 36.4463 73.9365V73.9375C40.0755 84.5371 49.2097 92.1874 60.2891 93.9014V93.9023L60.2979 93.9033C60.3189 93.9057 60.3336 93.9077 60.3652 93.9121C60.3924 93.9159 60.4284 93.9199 60.4668 93.9199H60.6758L60.666 93.7109C60.5408 91.0513 60.4106 88.402 60.2744 85.8018L60.2666 85.6504L60.1182 85.6172L59.3428 85.4297C51.379 83.346 44.7866 76.7748 42.9521 68.8389L42.9502 68.832C39.7682 56.7865 48.008 43.8158 60.21 40.7598L60.3545 40.7236L60.3613 40.5742C60.3776 40.1995 60.397 39.8243 60.416 39.4473C60.4351 39.0705 60.4543 38.6914 60.4707 38.3096L60.4697 38.3086C60.4723 38.278 60.4744 38.2495 60.4756 38.2246C60.477 38.1957 60.4782 38.1712 60.4805 38.1465L60.4814 38.1387C60.5195 37.404 60.5571 36.6788 60.5898 35.9375L60.6006 35.7061L60.3701 35.7295ZM60.0459 41.5137C48.8804 44.7238 43.1508 54.0889 43.0684 63.3887C42.9859 72.691 48.5545 81.9331 59.959 84.8877L60.2266 84.957L60.209 84.6807C59.9457 80.6661 58.7528 76.6318 56.8066 73.415C54.8613 70.1997 52.1507 67.7823 48.8457 67.0449L48.8271 67.041H48.8086C44.7425 66.8988 44.7306 61.1069 48.8037 60.9541L48.8027 60.9531C49.1919 60.9518 49.9745 60.8267 51.2979 60.0752L51.2988 60.0762C56.7278 57.11 60.2032 49.5064 60.3018 41.709L60.3047 41.4395L60.0459 41.5137ZM69.6875 41.6758C69.7696 49.4677 73.2502 57.1142 78.6904 60.0752C80.0116 60.8256 80.7943 60.9513 81.1738 60.9531V60.9541C82.207 60.9966 82.9669 61.3934 83.4697 61.9551C83.975 62.5196 84.2305 63.262 84.2305 64.0078C84.2304 64.7535 83.9753 65.4938 83.4717 66.0547C82.9705 66.6128 82.2137 67.0049 81.1865 67.041H81.168L81.1504 67.0449C77.8395 67.7767 75.1271 70.1956 73.1816 73.4131C71.2354 76.6319 70.0435 80.6688 69.7803 84.6807L69.7627 84.957L70.0312 84.8877C81.4435 81.9004 86.9989 72.6448 86.9082 63.3398C86.8175 54.0375 81.0837 44.6807 69.9424 41.4814L69.6846 41.4072L69.6875 41.6758ZM83.5664 63.9961C83.5603 62.6983 82.5072 61.6479 81.2051 61.6357C77.6729 60.9808 74.7586 58.4435 72.6621 54.9883C70.6949 51.7462 69.4605 47.7146 69.1201 43.7334L69.0635 42.9385C68.9764 41.3335 68.8897 39.6749 68.8135 38.0488H68.8125C68.8121 38.0377 68.8115 38.0279 68.8105 38.0205C68.81 38.0163 68.8091 38.0122 68.8086 38.0088L68.8076 37.999C68.2411 26.4179 67.354 5.26166 67.3701 3.24512V3.24316C67.3701 1.93684 66.3046 0.880997 64.9922 0.880859C63.6796 0.880859 62.6133 1.93676 62.6133 3.24316V3.24414C62.6241 5.28569 61.7532 26.3963 61.1758 37.999V38.0527L60.9258 42.9385C60.6878 47.1766 59.4219 51.5376 57.3223 54.9971C55.2245 58.4533 52.3087 60.9886 48.7744 61.6357C47.472 61.6474 46.4181 62.698 46.418 63.9971C46.418 65.299 47.4788 66.3531 48.7793 66.3574C52.2949 67.0082 55.2005 69.529 57.2959 72.9629C59.392 76.398 60.6625 80.7265 60.9141 84.9375V84.9385L60.916 84.9512C60.9221 84.9991 60.9258 85.023 60.9258 85.0508H60.9248L60.9258 85.0605C60.9421 85.3793 60.9583 85.7037 60.9746 86.0439V86.0449C61.5519 96.7649 62.6133 122.06 62.6133 124.757C62.6133 126.063 63.6796 127.119 64.9922 127.119C66.3046 127.119 67.3701 126.063 67.3701 124.757C67.3701 121.828 68.4807 95.7926 69.0635 85.0615V85.0508C69.0635 85.0446 69.0644 85.0366 69.0674 85.0146L69.0752 84.9258C69.3284 80.713 70.5979 76.3908 72.6914 72.9609C74.786 69.5293 77.6915 67.0109 81.21 66.3574C82.5156 66.348 83.5664 65.2992 83.5664 63.9971V63.9961Z"
            fill="url(#paint0_linear_261_682)" fill-opacity="0.55" stroke="url(#paint1_linear_261_682)"
            stroke-width="0.1" />
        <path
            d="M64.9971 2.377C65.4485 2.38384 65.8719 2.68144 65.8809 3.24614C65.8676 5.09454 66.4998 20.5297 67.0479 32.3467L67.2754 37.1436C67.3244 38.1243 67.3719 39.1097 67.4209 40.0918L67.5752 43.0206C67.8003 47.5941 69.2005 52.3107 71.5371 56.0362C73.8733 59.7609 77.16 62.5163 81.1631 63.1143L81.1865 63.1163C81.4909 63.1267 81.7057 63.2429 81.8457 63.4014C81.9884 63.563 82.0634 63.7797 82.0635 64.001C82.0635 64.2224 81.988 64.4386 81.8457 64.5987C81.7061 64.7556 81.4919 64.8699 81.1875 64.878L81.1758 64.879L81.1631 64.8809C77.1601 65.479 73.8707 68.2377 71.5332 71.9649C69.1961 75.6917 67.7956 80.4078 67.5752 84.9747C67.5721 85.0119 67.5707 85.0487 67.5693 85.0811C67.568 85.1147 67.5668 85.145 67.5645 85.1758V85.1797C67.5427 85.568 67.5203 85.9684 67.5039 86.3907C66.9213 97.1779 65.8809 122.172 65.8809 124.757C65.8809 125.239 65.482 125.638 64.9922 125.638C64.5022 125.638 64.1025 125.24 64.1025 124.757C64.1118 122.75 63.3504 104.257 62.7842 92.4034L62.5557 87.7969L62.4795 86.3848C62.4631 85.9683 62.4416 85.5629 62.4199 85.1749L62.4189 85.169L62.4141 85.0801C62.4128 85.0504 62.4109 85.0163 62.4082 84.9815H62.4092C62.1844 80.4047 60.7861 75.6934 58.4512 71.9707C56.1169 68.2494 52.8313 65.4952 48.8262 64.8809L48.8115 64.878H48.7959C48.3012 64.8778 47.9072 64.4804 47.9072 63.9971C47.9073 63.5139 48.3013 63.1164 48.7959 63.1163H48.8115L48.8262 63.1143C52.8291 62.5109 56.1156 59.7544 58.4512 56.0303C60.7873 52.3052 62.187 47.5909 62.4092 43.0196C62.5562 40.3221 62.6921 37.5652 62.8174 34.8409C63.4266 22.061 64.1014 5.51608 64.1025 3.24907C64.1119 2.93808 64.2295 2.72365 64.3887 2.58598C64.5515 2.44537 64.7714 2.37359 64.9971 2.377Z"
            fill="url(#paint2_linear_261_682)" fill-opacity="0.45" stroke="url(#paint3_linear_261_682)"
            stroke-width="0.1" />
        <path
            d="M60.1091 37.5709C60.0998 37.7508 60.0899 37.9311 60.0818 38.11C60.0786 38.1445 60.0773 38.177 60.0759 38.2047L60.071 38.2828V38.2926C60.0565 38.6351 60.0387 38.9431 60.0232 39.2721C46.9868 42.4401 38.0905 56.2721 41.5066 69.194C43.5734 78.1162 50.8991 85.1669 59.9412 87.0992C60.0234 88.8291 60.1219 90.5937 60.2 92.3863C38.2027 88.8902 28.446 61.6708 43.9431 45.4459L44.3152 45.0631C48.4917 40.8171 54.1708 38.0278 60.1238 37.2594C60.1186 37.3632 60.1145 37.467 60.1091 37.5709Z"
            fill="url(#paint4_linear_261_682)" fill-opacity="0.45" stroke="url(#paint5_linear_261_682)"
            stroke-width="0.1" />
        <path
            d="M69.9077 38.1134C69.8945 37.8253 69.879 37.5449 69.8647 37.254C83.3681 38.9683 93.8799 50.9663 93.6167 64.7608V64.7647C93.6005 78.3011 83.3785 90.1399 69.7837 92.4102C69.8702 90.6132 69.961 88.8363 70.0474 87.1046C80.6258 84.8494 88.7535 75.3871 89.1362 64.6417C89.7631 52.9059 81.4684 42.1328 69.9653 39.2569C69.9476 38.9341 69.9336 38.6099 69.9194 38.2764L69.9175 38.2647C69.9119 38.2092 69.9077 38.1653 69.9077 38.1231V38.1134Z"
            fill="url(#paint6_linear_261_682)" fill-opacity="0.45" stroke="url(#paint7_linear_261_682)"
            stroke-width="0.1" />
    </g>
    <defs>
        <linearGradient id="paint0_linear_261_682" x1="34.6361" y1="1.12593" x2="119.146" y2="42.0606"
            gradientUnits="userSpaceOnUse">
            <stop offset="0.301666" stop-color="white" stop-opacity="0" />
            <stop offset="0.796666" stop-color="white" />
        </linearGradient>
        <linearGradient id="paint1_linear_261_682" x1="87.1867" y1="110.931" x2="44.113" y2="5.13685"
            gradientUnits="userSpaceOnUse">
            <stop offset="0.206666" stop-color="white" />
            <stop offset="0.716666" stop-color="white" stop-opacity="0" />
        </linearGradient>
        <linearGradient id="paint2_linear_261_682" x1="48.0616" y1="3.26456" x2="76.7369" y2="107.428"
            gradientUnits="userSpaceOnUse">
            <stop offset="0.301666" stop-color="white" stop-opacity="0" />
            <stop offset="0.796666" stop-color="white" />
        </linearGradient>
        <linearGradient id="paint3_linear_261_682" x1="77.351" y1="109.347" x2="25.2229" y2="92.2748"
            gradientUnits="userSpaceOnUse">
            <stop offset="0.206666" stop-color="white" />
            <stop offset="0.716666" stop-color="white" stop-opacity="0" />
        </linearGradient>
        <linearGradient id="paint4_linear_261_682" x1="36.429" y1="37.5199" x2="56.5627" y2="84.407"
            gradientUnits="userSpaceOnUse">
            <stop offset="0.301666" stop-color="white" stop-opacity="0" />
            <stop offset="0.796666" stop-color="white" />
        </linearGradient>
        <linearGradient id="paint5_linear_261_682" x1="56.9674" y1="85.2096" x2="40.1389" y2="39.2784"
            gradientUnits="userSpaceOnUse">
            <stop offset="0.206666" stop-color="white" />
            <stop offset="0.716666" stop-color="white" stop-opacity="0" />
        </linearGradient>
        <linearGradient id="paint6_linear_261_682" x1="69.8206" y1="37.5148" x2="89.9691" y2="84.4292"
            gradientUnits="userSpaceOnUse">
            <stop offset="0.301666" stop-color="white" stop-opacity="0" />
            <stop offset="0.796666" stop-color="white" />
        </linearGradient>
        <linearGradient id="paint7_linear_261_682" x1="90.3741" y1="85.2323" x2="73.5332" y2="39.2742"
            gradientUnits="userSpaceOnUse">
            <stop offset="0.206666" stop-color="white" />
            <stop offset="0.716666" stop-color="white" stop-opacity="0" />
        </linearGradient>
        <clipPath id="clip0_261_682">
            <rect width="62" height="128" fill="white" transform="translate(34)" />
        </clipPath>
    </defs>
</svg>