<svg width="129" height="128" viewBox="0 0 129 128" fill="none" xmlns="http://www.w3.org/2000/svg">
    <g clip-path="url(#clip0_456_374)">
        <mask id="path-1-inside-1_456_374" fill="white">
            <path fill-rule="evenodd" clip-rule="evenodd"
                d="M94.9303 7.4123C87.6441 3.51692 79.7672 1.11076 71.5272 0.25538C71.441 0.243073 71.3549 0.243073 71.2749 0.243073C70.5795 0.243073 69.9149 0.532303 69.4472 1.05538C68.9179 1.63384 68.7026 2.43384 68.8626 3.20307C70.1241 9.26461 71.8964 14.7415 74.1364 19.4861C77.3056 26.2185 81.2133 31.0677 85.5456 33.7569C81.2133 36.4461 77.3056 41.2954 74.1364 48.0277C69.3364 58.2185 66.6964 71.7262 66.6964 86.0646V125.295C66.6964 125.978 66.9795 126.625 67.4779 127.092C67.9333 127.517 68.5364 127.757 69.1579 127.757C69.2133 127.757 69.2687 127.751 69.3241 127.751C78.3456 127.135 86.961 124.662 94.9303 120.403C95.7303 119.978 96.2349 119.142 96.2349 118.237V9.58461C96.2349 8.67384 95.7303 7.83692 94.9303 7.4123ZM95.0041 118.237C95.0041 118.686 94.7518 119.105 94.3518 119.32C86.5364 123.492 78.0872 125.917 69.2379 126.52C69.2133 126.52 69.1826 126.526 69.1579 126.526C68.8441 126.526 68.5426 126.409 68.3149 126.194C68.0687 125.96 67.9272 125.634 67.9272 125.295V86.0646C67.9272 71.9046 70.5241 58.5877 75.2503 48.5508C78.4626 41.7261 82.4195 36.9261 86.7826 34.4523C87.2379 34.1938 87.6995 33.96 88.1672 33.7569C87.6995 33.5538 87.2379 33.32 86.7826 33.0615C82.4195 30.5877 78.4626 25.7877 75.2503 18.9631C73.0533 14.3046 71.3118 8.91999 70.0687 2.95692C69.9887 2.56923 70.0933 2.16923 70.3579 1.88C70.5918 1.61538 70.9241 1.47384 71.2749 1.47384C71.3118 1.47384 71.3549 1.47384 71.3979 1.48C79.4841 2.31692 87.201 4.68 94.3518 8.49538C94.7518 8.71076 95.0041 9.12923 95.0041 9.58461V118.237Z" />
            <path fill-rule="evenodd" clip-rule="evenodd"
                d="M29.767 81.9477C28.9732 59.5662 21.7239 40.7292 11.3055 33.9662C10.9055 33.7077 10.4378 33.5723 9.9701 33.5723C9.75471 33.5723 9.53933 33.5969 9.3301 33.6523C8.65317 33.8369 8.09317 34.2923 7.77317 34.9138C3.17625 43.9477 0.850098 53.7015 0.850098 63.9108C0.850098 83.9108 9.94548 102.397 25.8101 114.618C26.247 114.957 26.7763 115.135 27.3116 115.135C27.6809 115.135 28.0501 115.049 28.3947 114.877C29.2378 114.465 29.7732 113.609 29.7732 112.674C29.7732 112.674 29.7732 81.9785 29.767 81.9477ZM28.5424 112.674C28.5424 113.142 28.2716 113.566 27.8532 113.775C27.6809 113.862 27.4963 113.905 27.3116 113.905C27.0409 113.905 26.7763 113.818 26.5609 113.646C11.0039 101.658 2.08087 83.5292 2.08087 63.9108C2.08087 53.8985 4.36394 44.3292 8.86856 35.4738C9.02856 35.16 9.31164 34.9323 9.6501 34.84C9.75471 34.8154 9.85933 34.8031 9.9701 34.8031C10.2039 34.8031 10.4378 34.8708 10.6409 35C20.7332 41.5477 27.7547 59.9969 28.5424 81.9969V112.674Z" />
            <path fill-rule="evenodd" clip-rule="evenodd"
                d="M44.1363 33.7631C48.4747 31.0738 52.3886 26.2246 55.5578 19.4861C57.7978 14.7477 59.5701 9.26461 60.8316 3.20307C60.9916 2.43384 60.7763 1.63384 60.247 1.05538C59.7793 0.532303 59.1147 0.243073 58.4255 0.243073C58.3393 0.243073 58.2532 0.243073 58.167 0.25538C49.927 1.11076 42.0563 3.51692 34.764 7.4123C33.964 7.83692 33.4655 8.67384 33.4655 9.58461V118.237C33.4655 119.142 33.964 119.978 34.764 120.403C42.7332 124.662 51.3486 127.135 60.3701 127.751C60.4255 127.751 60.487 127.757 60.5424 127.757C61.164 127.757 61.7609 127.517 62.2224 127.092C62.7209 126.625 63.004 125.978 63.004 125.295V86.0646C63.004 61.1662 55.1886 40.6431 44.1363 33.7631ZM61.7732 125.295C61.7732 125.634 61.6316 125.96 61.3793 126.194C61.1516 126.409 60.8501 126.526 60.5424 126.526C60.5116 126.526 60.487 126.52 60.4563 126.52C51.607 125.917 43.1578 123.492 35.3424 119.32C34.9424 119.105 34.6963 118.686 34.6963 118.237V9.58461C34.6963 9.12923 34.9424 8.71076 35.3424 8.49538C42.4932 4.68 50.2163 2.31692 58.2963 1.48C58.3393 1.47384 58.3824 1.47384 58.4255 1.47384C58.7701 1.47384 59.1024 1.61538 59.3363 1.88C59.6009 2.16923 59.7055 2.56923 59.6255 2.95692C58.3824 8.91999 56.6409 14.3046 54.4501 18.9631C51.2316 25.7938 47.2686 30.5938 42.9055 33.0615C42.4501 33.3261 41.9947 33.56 41.527 33.7569C41.9947 33.96 42.4624 34.1938 42.9178 34.4585C47.2747 36.9261 51.2316 41.7261 54.4439 48.5508C59.1701 58.5877 61.7732 71.9108 61.7732 86.0646V125.295Z" />
            <path fill-rule="evenodd" clip-rule="evenodd"
                d="M121.933 34.9508C121.619 34.3292 121.047 33.8677 120.376 33.6892C120.167 33.6338 119.952 33.6092 119.742 33.6092C119.269 33.6092 118.795 33.7446 118.395 34.0092C114.204 36.7477 110.395 41.5969 107.367 48.0277C102.567 58.2185 99.927 71.7262 99.927 86.0646V112.674C99.927 113.609 100.456 114.465 101.299 114.877C101.644 115.049 102.013 115.135 102.389 115.135C102.918 115.135 103.447 114.957 103.89 114.618C119.749 102.397 128.85 83.9108 128.85 63.9108C128.85 53.7077 126.524 43.9661 121.933 34.9508ZM103.139 113.646C102.918 113.818 102.653 113.905 102.389 113.905C102.204 113.905 102.013 113.862 101.841 113.775C101.422 113.566 101.158 113.142 101.158 112.674V86.0646C101.158 71.9046 103.755 58.5877 108.481 48.5508C111.41 42.3231 115.072 37.6523 119.066 35.0369C119.269 34.9077 119.502 34.84 119.742 34.84C119.847 34.84 119.952 34.8523 120.056 34.8769C120.395 34.9692 120.678 35.1969 120.838 35.5108C125.336 44.3538 127.619 53.9046 127.619 63.9108C127.619 83.5292 118.696 101.658 103.139 113.646Z" />
        </mask>
        <path fill-rule="evenodd" clip-rule="evenodd"
            d="M94.9303 7.4123C87.6441 3.51692 79.7672 1.11076 71.5272 0.25538C71.441 0.243073 71.3549 0.243073 71.2749 0.243073C70.5795 0.243073 69.9149 0.532303 69.4472 1.05538C68.9179 1.63384 68.7026 2.43384 68.8626 3.20307C70.1241 9.26461 71.8964 14.7415 74.1364 19.4861C77.3056 26.2185 81.2133 31.0677 85.5456 33.7569C81.2133 36.4461 77.3056 41.2954 74.1364 48.0277C69.3364 58.2185 66.6964 71.7262 66.6964 86.0646V125.295C66.6964 125.978 66.9795 126.625 67.4779 127.092C67.9333 127.517 68.5364 127.757 69.1579 127.757C69.2133 127.757 69.2687 127.751 69.3241 127.751C78.3456 127.135 86.961 124.662 94.9303 120.403C95.7303 119.978 96.2349 119.142 96.2349 118.237V9.58461C96.2349 8.67384 95.7303 7.83692 94.9303 7.4123ZM95.0041 118.237C95.0041 118.686 94.7518 119.105 94.3518 119.32C86.5364 123.492 78.0872 125.917 69.2379 126.52C69.2133 126.52 69.1826 126.526 69.1579 126.526C68.8441 126.526 68.5426 126.409 68.3149 126.194C68.0687 125.96 67.9272 125.634 67.9272 125.295V86.0646C67.9272 71.9046 70.5241 58.5877 75.2503 48.5508C78.4626 41.7261 82.4195 36.9261 86.7826 34.4523C87.2379 34.1938 87.6995 33.96 88.1672 33.7569C87.6995 33.5538 87.2379 33.32 86.7826 33.0615C82.4195 30.5877 78.4626 25.7877 75.2503 18.9631C73.0533 14.3046 71.3118 8.91999 70.0687 2.95692C69.9887 2.56923 70.0933 2.16923 70.3579 1.88C70.5918 1.61538 70.9241 1.47384 71.2749 1.47384C71.3118 1.47384 71.3549 1.47384 71.3979 1.48C79.4841 2.31692 87.201 4.68 94.3518 8.49538C94.7518 8.71076 95.0041 9.12923 95.0041 9.58461V118.237Z"
            fill="url(#paint0_linear_456_374)" fill-opacity="0.55" />
        <path fill-rule="evenodd" clip-rule="evenodd"
            d="M29.767 81.9477C28.9732 59.5662 21.7239 40.7292 11.3055 33.9662C10.9055 33.7077 10.4378 33.5723 9.9701 33.5723C9.75471 33.5723 9.53933 33.5969 9.3301 33.6523C8.65317 33.8369 8.09317 34.2923 7.77317 34.9138C3.17625 43.9477 0.850098 53.7015 0.850098 63.9108C0.850098 83.9108 9.94548 102.397 25.8101 114.618C26.247 114.957 26.7763 115.135 27.3116 115.135C27.6809 115.135 28.0501 115.049 28.3947 114.877C29.2378 114.465 29.7732 113.609 29.7732 112.674C29.7732 112.674 29.7732 81.9785 29.767 81.9477ZM28.5424 112.674C28.5424 113.142 28.2716 113.566 27.8532 113.775C27.6809 113.862 27.4963 113.905 27.3116 113.905C27.0409 113.905 26.7763 113.818 26.5609 113.646C11.0039 101.658 2.08087 83.5292 2.08087 63.9108C2.08087 53.8985 4.36394 44.3292 8.86856 35.4738C9.02856 35.16 9.31164 34.9323 9.6501 34.84C9.75471 34.8154 9.85933 34.8031 9.9701 34.8031C10.2039 34.8031 10.4378 34.8708 10.6409 35C20.7332 41.5477 27.7547 59.9969 28.5424 81.9969V112.674Z"
            fill="url(#paint1_linear_456_374)" fill-opacity="0.55" />
        <path fill-rule="evenodd" clip-rule="evenodd"
            d="M44.1363 33.7631C48.4747 31.0738 52.3886 26.2246 55.5578 19.4861C57.7978 14.7477 59.5701 9.26461 60.8316 3.20307C60.9916 2.43384 60.7763 1.63384 60.247 1.05538C59.7793 0.532303 59.1147 0.243073 58.4255 0.243073C58.3393 0.243073 58.2532 0.243073 58.167 0.25538C49.927 1.11076 42.0563 3.51692 34.764 7.4123C33.964 7.83692 33.4655 8.67384 33.4655 9.58461V118.237C33.4655 119.142 33.964 119.978 34.764 120.403C42.7332 124.662 51.3486 127.135 60.3701 127.751C60.4255 127.751 60.487 127.757 60.5424 127.757C61.164 127.757 61.7609 127.517 62.2224 127.092C62.7209 126.625 63.004 125.978 63.004 125.295V86.0646C63.004 61.1662 55.1886 40.6431 44.1363 33.7631ZM61.7732 125.295C61.7732 125.634 61.6316 125.96 61.3793 126.194C61.1516 126.409 60.8501 126.526 60.5424 126.526C60.5116 126.526 60.487 126.52 60.4563 126.52C51.607 125.917 43.1578 123.492 35.3424 119.32C34.9424 119.105 34.6963 118.686 34.6963 118.237V9.58461C34.6963 9.12923 34.9424 8.71076 35.3424 8.49538C42.4932 4.68 50.2163 2.31692 58.2963 1.48C58.3393 1.47384 58.3824 1.47384 58.4255 1.47384C58.7701 1.47384 59.1024 1.61538 59.3363 1.88C59.6009 2.16923 59.7055 2.56923 59.6255 2.95692C58.3824 8.91999 56.6409 14.3046 54.4501 18.9631C51.2316 25.7938 47.2686 30.5938 42.9055 33.0615C42.4501 33.3261 41.9947 33.56 41.527 33.7569C41.9947 33.96 42.4624 34.1938 42.9178 34.4585C47.2747 36.9261 51.2316 41.7261 54.4439 48.5508C59.1701 58.5877 61.7732 71.9108 61.7732 86.0646V125.295Z"
            fill="url(#paint2_linear_456_374)" fill-opacity="0.55" />
        <path fill-rule="evenodd" clip-rule="evenodd"
            d="M121.933 34.9508C121.619 34.3292 121.047 33.8677 120.376 33.6892C120.167 33.6338 119.952 33.6092 119.742 33.6092C119.269 33.6092 118.795 33.7446 118.395 34.0092C114.204 36.7477 110.395 41.5969 107.367 48.0277C102.567 58.2185 99.927 71.7262 99.927 86.0646V112.674C99.927 113.609 100.456 114.465 101.299 114.877C101.644 115.049 102.013 115.135 102.389 115.135C102.918 115.135 103.447 114.957 103.89 114.618C119.749 102.397 128.85 83.9108 128.85 63.9108C128.85 53.7077 126.524 43.9661 121.933 34.9508ZM103.139 113.646C102.918 113.818 102.653 113.905 102.389 113.905C102.204 113.905 102.013 113.862 101.841 113.775C101.422 113.566 101.158 113.142 101.158 112.674V86.0646C101.158 71.9046 103.755 58.5877 108.481 48.5508C111.41 42.3231 115.072 37.6523 119.066 35.0369C119.269 34.9077 119.502 34.84 119.742 34.84C119.847 34.84 119.952 34.8523 120.056 34.8769C120.395 34.9692 120.678 35.1969 120.838 35.5108C125.336 44.3538 127.619 53.9046 127.619 63.9108C127.619 83.5292 118.696 101.658 103.139 113.646Z"
            fill="url(#paint3_linear_456_374)" fill-opacity="0.55" />
        <path fill-rule="evenodd" clip-rule="evenodd"
            d="M94.9303 7.4123C87.6441 3.51692 79.7672 1.11076 71.5272 0.25538C71.441 0.243073 71.3549 0.243073 71.2749 0.243073C70.5795 0.243073 69.9149 0.532303 69.4472 1.05538C68.9179 1.63384 68.7026 2.43384 68.8626 3.20307C70.1241 9.26461 71.8964 14.7415 74.1364 19.4861C77.3056 26.2185 81.2133 31.0677 85.5456 33.7569C81.2133 36.4461 77.3056 41.2954 74.1364 48.0277C69.3364 58.2185 66.6964 71.7262 66.6964 86.0646V125.295C66.6964 125.978 66.9795 126.625 67.4779 127.092C67.9333 127.517 68.5364 127.757 69.1579 127.757C69.2133 127.757 69.2687 127.751 69.3241 127.751C78.3456 127.135 86.961 124.662 94.9303 120.403C95.7303 119.978 96.2349 119.142 96.2349 118.237V9.58461C96.2349 8.67384 95.7303 7.83692 94.9303 7.4123ZM95.0041 118.237C95.0041 118.686 94.7518 119.105 94.3518 119.32C86.5364 123.492 78.0872 125.917 69.2379 126.52C69.2133 126.52 69.1826 126.526 69.1579 126.526C68.8441 126.526 68.5426 126.409 68.3149 126.194C68.0687 125.96 67.9272 125.634 67.9272 125.295V86.0646C67.9272 71.9046 70.5241 58.5877 75.2503 48.5508C78.4626 41.7261 82.4195 36.9261 86.7826 34.4523C87.2379 34.1938 87.6995 33.96 88.1672 33.7569C87.6995 33.5538 87.2379 33.32 86.7826 33.0615C82.4195 30.5877 78.4626 25.7877 75.2503 18.9631C73.0533 14.3046 71.3118 8.91999 70.0687 2.95692C69.9887 2.56923 70.0933 2.16923 70.3579 1.88C70.5918 1.61538 70.9241 1.47384 71.2749 1.47384C71.3118 1.47384 71.3549 1.47384 71.3979 1.48C79.4841 2.31692 87.201 4.68 94.3518 8.49538C94.7518 8.71076 95.0041 9.12923 95.0041 9.58461V118.237Z"
            stroke="url(#paint4_linear_456_374)" stroke-width="0.2" mask="url(#path-1-inside-1_456_374)" />
        <path fill-rule="evenodd" clip-rule="evenodd"
            d="M29.767 81.9477C28.9732 59.5662 21.7239 40.7292 11.3055 33.9662C10.9055 33.7077 10.4378 33.5723 9.9701 33.5723C9.75471 33.5723 9.53933 33.5969 9.3301 33.6523C8.65317 33.8369 8.09317 34.2923 7.77317 34.9138C3.17625 43.9477 0.850098 53.7015 0.850098 63.9108C0.850098 83.9108 9.94548 102.397 25.8101 114.618C26.247 114.957 26.7763 115.135 27.3116 115.135C27.6809 115.135 28.0501 115.049 28.3947 114.877C29.2378 114.465 29.7732 113.609 29.7732 112.674C29.7732 112.674 29.7732 81.9785 29.767 81.9477ZM28.5424 112.674C28.5424 113.142 28.2716 113.566 27.8532 113.775C27.6809 113.862 27.4963 113.905 27.3116 113.905C27.0409 113.905 26.7763 113.818 26.5609 113.646C11.0039 101.658 2.08087 83.5292 2.08087 63.9108C2.08087 53.8985 4.36394 44.3292 8.86856 35.4738C9.02856 35.16 9.31164 34.9323 9.6501 34.84C9.75471 34.8154 9.85933 34.8031 9.9701 34.8031C10.2039 34.8031 10.4378 34.8708 10.6409 35C20.7332 41.5477 27.7547 59.9969 28.5424 81.9969V112.674Z"
            stroke="url(#paint5_linear_456_374)" stroke-width="0.2" mask="url(#path-1-inside-1_456_374)" />
        <path fill-rule="evenodd" clip-rule="evenodd"
            d="M44.1363 33.7631C48.4747 31.0738 52.3886 26.2246 55.5578 19.4861C57.7978 14.7477 59.5701 9.26461 60.8316 3.20307C60.9916 2.43384 60.7763 1.63384 60.247 1.05538C59.7793 0.532303 59.1147 0.243073 58.4255 0.243073C58.3393 0.243073 58.2532 0.243073 58.167 0.25538C49.927 1.11076 42.0563 3.51692 34.764 7.4123C33.964 7.83692 33.4655 8.67384 33.4655 9.58461V118.237C33.4655 119.142 33.964 119.978 34.764 120.403C42.7332 124.662 51.3486 127.135 60.3701 127.751C60.4255 127.751 60.487 127.757 60.5424 127.757C61.164 127.757 61.7609 127.517 62.2224 127.092C62.7209 126.625 63.004 125.978 63.004 125.295V86.0646C63.004 61.1662 55.1886 40.6431 44.1363 33.7631ZM61.7732 125.295C61.7732 125.634 61.6316 125.96 61.3793 126.194C61.1516 126.409 60.8501 126.526 60.5424 126.526C60.5116 126.526 60.487 126.52 60.4563 126.52C51.607 125.917 43.1578 123.492 35.3424 119.32C34.9424 119.105 34.6963 118.686 34.6963 118.237V9.58461C34.6963 9.12923 34.9424 8.71076 35.3424 8.49538C42.4932 4.68 50.2163 2.31692 58.2963 1.48C58.3393 1.47384 58.3824 1.47384 58.4255 1.47384C58.7701 1.47384 59.1024 1.61538 59.3363 1.88C59.6009 2.16923 59.7055 2.56923 59.6255 2.95692C58.3824 8.91999 56.6409 14.3046 54.4501 18.9631C51.2316 25.7938 47.2686 30.5938 42.9055 33.0615C42.4501 33.3261 41.9947 33.56 41.527 33.7569C41.9947 33.96 42.4624 34.1938 42.9178 34.4585C47.2747 36.9261 51.2316 41.7261 54.4439 48.5508C59.1701 58.5877 61.7732 71.9108 61.7732 86.0646V125.295Z"
            stroke="url(#paint6_linear_456_374)" stroke-width="0.2" mask="url(#path-1-inside-1_456_374)" />
        <path fill-rule="evenodd" clip-rule="evenodd"
            d="M121.933 34.9508C121.619 34.3292 121.047 33.8677 120.376 33.6892C120.167 33.6338 119.952 33.6092 119.742 33.6092C119.269 33.6092 118.795 33.7446 118.395 34.0092C114.204 36.7477 110.395 41.5969 107.367 48.0277C102.567 58.2185 99.927 71.7262 99.927 86.0646V112.674C99.927 113.609 100.456 114.465 101.299 114.877C101.644 115.049 102.013 115.135 102.389 115.135C102.918 115.135 103.447 114.957 103.89 114.618C119.749 102.397 128.85 83.9108 128.85 63.9108C128.85 53.7077 126.524 43.9661 121.933 34.9508ZM103.139 113.646C102.918 113.818 102.653 113.905 102.389 113.905C102.204 113.905 102.013 113.862 101.841 113.775C101.422 113.566 101.158 113.142 101.158 112.674V86.0646C101.158 71.9046 103.755 58.5877 108.481 48.5508C111.41 42.3231 115.072 37.6523 119.066 35.0369C119.269 34.9077 119.502 34.84 119.742 34.84C119.847 34.84 119.952 34.8523 120.056 34.8769C120.395 34.9692 120.678 35.1969 120.838 35.5108C125.336 44.3538 127.619 53.9046 127.619 63.9108C127.619 83.5292 118.696 101.658 103.139 113.646Z"
            stroke="url(#paint7_linear_456_374)" stroke-width="0.2" mask="url(#path-1-inside-1_456_374)" />
        <path
            d="M36.127 33.9605C37.3582 33.9817 38.5676 34.1961 39.7451 34.5982L39.749 34.5992C40.3109 34.7804 40.867 35.0111 41.418 35.2896L41.4199 35.2906C46.8075 37.9403 51.5418 44.4175 54.9297 53.3658C58.3145 62.3059 60.3428 73.6792 60.3428 86.065V125.08C51.6433 124.456 43.4441 122.007 36.127 118.115V33.9605ZM93.5732 118.115C86.2561 122.007 78.0569 124.456 69.3574 125.08V86.065C69.3574 71.6447 72.1047 58.598 76.5449 49.1656C79.7297 42.391 83.7777 37.5021 88.2793 35.2906L88.2812 35.2896C88.826 35.0172 89.3894 34.7871 89.9531 34.5992L89.9541 34.5982C91.1318 34.196 92.3418 33.9816 93.5732 33.9605V118.115ZM10.0469 36.3267C14.669 39.4137 18.7232 45.3682 21.7266 53.2515C24.6733 60.9862 26.6008 70.5544 27.0703 81.0308L27.1113 82.0474V112.262C12.7463 101.039 3.51172 83.5573 3.51172 63.9107C3.51173 53.9866 5.8662 44.6188 10.0469 36.3267ZM119.665 36.3628C123.84 44.6429 126.188 54.0047 126.188 63.9107C126.188 83.5572 116.954 101.039 102.589 112.262V86.065C102.589 71.6447 105.335 58.598 109.775 49.1656C112.521 43.3297 115.906 38.8928 119.665 36.3628ZM58.1709 2.93315C56.9464 8.72032 55.2383 13.9354 53.1553 18.355C49.9642 25.1298 45.916 30.0186 41.4082 32.23H41.4062C40.8605 32.5029 40.3104 32.7335 39.749 32.9146L39.7451 32.9156C38.5675 33.3176 37.3582 33.5311 36.127 33.5523V9.70561C42.8303 6.14136 50.2791 3.78835 58.1709 2.93315ZM71.5283 2.93315C79.4205 3.78828 86.8697 6.1412 93.5732 9.70561V33.5523C92.342 33.5311 91.1327 33.3176 89.9551 32.9156L89.9531 32.9146C89.3894 32.7267 88.826 32.4965 88.2812 32.2242L88.2793 32.2232C83.7777 30.0117 79.7297 25.1233 76.5449 18.355C74.4619 13.9353 72.7528 8.72038 71.5283 2.93315Z"
            fill="url(#paint8_linear_456_374)" fill-opacity="0.45" stroke="url(#paint9_linear_456_374)"
            stroke-width="0.1" />
    </g>
    <defs>
        <linearGradient id="paint0_linear_456_374" x1="2.16334" y1="1.36472" x2="122.349" y2="133.863"
            gradientUnits="userSpaceOnUse">
            <stop offset="0.280454" stop-color="white" stop-opacity="0" />
            <stop offset="0.958757" stop-color="white" />
        </linearGradient>
        <linearGradient id="paint1_linear_456_374" x1="2.16334" y1="1.36472" x2="122.349" y2="133.863"
            gradientUnits="userSpaceOnUse">
            <stop offset="0.280454" stop-color="white" stop-opacity="0" />
            <stop offset="0.958757" stop-color="white" />
        </linearGradient>
        <linearGradient id="paint2_linear_456_374" x1="2.16334" y1="1.36472" x2="122.349" y2="133.863"
            gradientUnits="userSpaceOnUse">
            <stop offset="0.280454" stop-color="white" stop-opacity="0" />
            <stop offset="0.958757" stop-color="white" />
        </linearGradient>
        <linearGradient id="paint3_linear_456_374" x1="2.16334" y1="1.36472" x2="122.349" y2="133.863"
            gradientUnits="userSpaceOnUse">
            <stop offset="0.280454" stop-color="white" stop-opacity="0" />
            <stop offset="0.958757" stop-color="white" />
        </linearGradient>
        <linearGradient id="paint4_linear_456_374" x1="118.136" y1="124.552" x2="7.34659" y2="-5.10421"
            gradientUnits="userSpaceOnUse">
            <stop offset="0.124425" stop-color="white" />
            <stop offset="0.694633" stop-color="white" stop-opacity="0" />
        </linearGradient>
        <linearGradient id="paint5_linear_456_374" x1="118.136" y1="124.552" x2="7.34659" y2="-5.10421"
            gradientUnits="userSpaceOnUse">
            <stop offset="0.124425" stop-color="white" />
            <stop offset="0.694633" stop-color="white" stop-opacity="0" />
        </linearGradient>
        <linearGradient id="paint6_linear_456_374" x1="118.136" y1="124.552" x2="7.34659" y2="-5.10421"
            gradientUnits="userSpaceOnUse">
            <stop offset="0.124425" stop-color="white" />
            <stop offset="0.694633" stop-color="white" stop-opacity="0" />
        </linearGradient>
        <linearGradient id="paint7_linear_456_374" x1="118.136" y1="124.552" x2="7.34659" y2="-5.10421"
            gradientUnits="userSpaceOnUse">
            <stop offset="0.124425" stop-color="white" />
            <stop offset="0.694633" stop-color="white" stop-opacity="0" />
        </linearGradient>
        <linearGradient id="paint8_linear_456_374" x1="4.57425" y1="3.78298" x2="128.658" y2="134.708"
            gradientUnits="userSpaceOnUse">
            <stop offset="0.211092" stop-color="white" stop-opacity="0" />
            <stop offset="0.867581" stop-color="white" />
        </linearGradient>
        <linearGradient id="paint9_linear_456_374" x1="131.828" y1="143.361" x2="22.2838" y2="7.84112"
            gradientUnits="userSpaceOnUse">
            <stop offset="0.206666" stop-color="white" />
            <stop offset="0.680992" stop-color="white" stop-opacity="0" />
        </linearGradient>
        <clipPath id="clip0_456_374">
            <rect width="128" height="128" fill="white" transform="translate(0.850098)" />
        </clipPath>
    </defs>
</svg>